<svg data-v-423bf9ae="" xmlns="http://www.w3.org/2000/svg" viewBox="0 0 185.99998927116374 179" class="iconAboveSlogan"><!----><!----><!----><g data-v-423bf9ae="" id="845f8db6-8e0b-4c9a-87c1-6537f97755b7" fill="white" transform="matrix(5.357142948374458,0,0,5.357142948374458,-3.7500011324881513,97.37499849072525)"><path d="M0.70 12.02L0.70 12.02L0.70 1.27L0.70 1.27Q0.70 1.05 0.92 1.05L0.92 1.05L4.29 1.05L4.29 1.05Q5.28 1.05 5.79 1.57L5.79 1.57L5.79 1.57Q6.30 2.08 6.30 3.07L6.30 3.07L6.30 6.48L6.30 6.48Q6.30 7.46 5.79 7.98L5.79 7.98L5.79 7.98Q5.27 8.50 4.29 8.50L4.29 8.50L2.60 8.50L2.60 12.02L2.60 12.02Q2.60 12.25 2.38 12.25L2.38 12.25L0.92 12.25L0.92 12.25Q0.82 12.25 0.76 12.19L0.76 12.19L0.76 12.19Q0.70 12.13 0.70 12.02ZM2.60 2.90L2.60 6.65L3.83 6.65L3.83 6.65Q4.40 6.65 4.40 6.09L4.40 6.09L4.40 3.46L4.40 3.46Q4.40 2.90 3.83 2.90L3.83 2.90L2.60 2.90ZM7.70 12.02L7.70 12.02L7.70 2.67L7.70 2.67Q7.70 2.57 7.76 2.51L7.76 2.51L7.76 2.51Q7.82 2.45 7.92 2.45L7.92 2.45L11.29 2.45L11.29 2.45Q12.28 2.45 12.79 2.96L12.79 2.96L12.79 2.96Q13.30 3.47 13.30 4.46L13.30 4.46L13.30 7.28L13.30 7.28Q13.30 8.50 12.52 8.99L12.52 8.99L13.24 12.00L13.24 12.00Q13.30 12.25 13.05 12.25L13.05 12.25L11.68 12.25L11.68 12.25Q11.48 12.25 11.44 12.05L11.44 12.05L10.77 9.30L9.52 9.30L9.52 12.02L9.52 12.02Q9.52 12.13 9.46 12.19L9.46 12.19L9.46 12.19Q9.40 12.25 9.30 12.25L9.30 12.25L7.92 12.25L7.92 12.25Q7.82 12.25 7.76 12.19L7.76 12.19L7.76 12.19Q7.70 12.13 7.70 12.02ZM9.52 4.26L9.52 7.49L10.92 7.49L10.92 7.49Q11.48 7.49 11.48 6.93L11.48 6.93L11.48 4.82L11.48 4.82Q11.48 4.26 10.92 4.26L10.92 4.26L9.52 4.26ZM14.70 10.23L14.70 10.23L14.70 4.46L14.70 4.46Q14.70 3.47 15.21 2.96L15.21 2.96L15.21 2.96Q15.72 2.45 16.71 2.45L16.71 2.45L18.29 2.45L18.29 2.45Q19.28 2.45 19.79 2.96L19.79 2.96L19.79 2.96Q20.30 3.47 20.30 4.46L20.30 4.46L20.30 10.23L20.30 10.23Q20.30 11.22 19.79 11.74L19.79 11.74L19.79 11.74Q19.28 12.25 18.29 12.25L18.29 12.25L16.71 12.25L16.71 12.25Q15.72 12.25 15.21 11.74L15.21 11.74L15.21 11.74Q14.70 11.22 14.70 10.23ZM16.52 4.82L16.52 9.88L16.52 9.88Q16.52 10.45 17.08 10.45L17.08 10.45L17.98 10.45L17.98 10.45Q18.54 10.45 18.54 9.88L18.54 9.88L18.54 4.82L18.54 4.82Q18.54 4.26 17.98 4.26L17.98 4.26L17.08 4.26L17.08 4.26Q16.52 4.26 16.52 4.82L16.52 4.82ZM21.70 10.23L21.70 10.23L21.70 8.78L21.70 8.78Q21.70 8.55 21.92 8.55L21.92 8.55L23.32 8.55L23.32 8.55Q23.43 8.55 23.49 8.61L23.49 8.61L23.49 8.61Q23.55 8.67 23.55 8.78L23.55 8.78L23.55 9.84L23.55 9.84Q23.55 10.40 24.11 10.40L24.11 10.40L24.83 10.40L24.83 10.40Q25.40 10.40 25.40 9.84L25.40 9.84L25.40 2.67L25.40 2.67Q25.40 2.45 25.62 2.45L25.62 2.45L27.08 2.45L27.08 2.45Q27.18 2.45 27.24 2.51L27.24 2.51L27.24 2.51Q27.30 2.57 27.30 2.67L27.30 2.67L27.30 10.23L27.30 10.23Q27.30 11.22 26.78 11.73L26.78 11.73L26.78 11.73Q26.26 12.25 25.29 12.25L25.29 12.25L23.71 12.25L23.71 12.25Q22.72 12.25 22.21 11.74L22.21 11.74L22.21 11.74Q21.70 11.22 21.70 10.23ZM28.44 12.15L28.44 12.15L28.44 12.15Q28.42 12.11 28.42 12.07L28.42 12.07L28.42 12.07Q28.42 12.00 28.46 11.92L28.46 11.92L30.83 7.24L28.60 2.79L28.60 2.79Q28.53 2.65 28.59 2.55L28.59 2.55L28.59 2.55Q28.65 2.45 28.81 2.45L28.81 2.45L30.26 2.45L30.26 2.45Q30.47 2.45 30.58 2.65L30.58 2.65L31.92 5.48L33.26 2.65L33.26 2.65Q33.36 2.45 33.58 2.45L33.58 2.45L35.03 2.45L35.03 2.45Q35.19 2.45 35.25 2.55L35.25 2.55L35.25 2.55Q35.31 2.65 35.24 2.79L35.24 2.79L33.02 7.24L35.38 11.92L35.38 11.92Q35.42 12.00 35.42 12.07L35.42 12.07L35.42 12.07Q35.42 12.11 35.40 12.15L35.40 12.15L35.40 12.15Q35.34 12.25 35.17 12.25L35.17 12.25L33.73 12.25L33.73 12.25Q33.51 12.25 33.41 12.05L33.41 12.05L31.92 9.02L30.43 12.05L30.43 12.05Q30.34 12.25 30.11 12.25L30.11 12.25L28.67 12.25L28.67 12.25Q28.50 12.25 28.44 12.15Z"></path></g><!----><g data-v-423bf9ae="" id="36ab3073-5894-4040-ac7c-4219459cdd62" transform="matrix(1.4996459842974539,0,0,1.4996459842974539,44.26150580814496,-0.4925688344046222)" stroke="none" fill="white"><path d="M50 36v-4a1 1 0 0 0-1-1H37.191A5.917 5.917 0 0 0 38 28a6 6 0 0 0-12 0 5.917 5.917 0 0 0 .809 3H15a1 1 0 0 0-1 1v4a1 1 0 0 0 1 1h10.867l-2.86 22.876A1 1 0 0 0 24 61h5a1 1 0 0 0 .98-.804L32 50.1l2.02 10.097A1 1 0 0 0 35 61h5a1 1 0 0 0 .992-1.124L38.132 37H49a1 1 0 0 0 1-1zm-2-1H37a1 1 0 0 0-.992 1.124L38.868 59h-3.049L32.98 44.804a1 1 0 0 0-1.96 0L28.18 59h-3.047l2.86-22.876A1 1 0 0 0 27 35H16v-2h13.027a1 1 0 0 0 .598-1.802A3.962 3.962 0 0 1 28 28a4 4 0 0 1 8 0 3.962 3.962 0 0 1-1.625 3.198A1 1 0 0 0 34.973 33H48zM36.65 2.768a6.997 6.997 0 0 0-9.69 10.084A3.99 3.99 0 0 1 28 15.656V16a1 1 0 0 0 1 1h6a1 1 0 0 0 1-1v-.519a4.181 4.181 0 0 1 1.178-2.776 6.993 6.993 0 0 0-.528-9.937zm-.95 8.59A6.2 6.2 0 0 0 34.02 15H29.97a5.845 5.845 0 0 0-1.569-3.537 5 5 0 1 1 7.3-.106zM30 18h4v2h-4zM13 24a6 6 0 1 0-6-6 6.007 6.007 0 0 0 6 6zm0-10a4 4 0 1 1-4 4 4.004 4.004 0 0 1 4-4z"></path><path d="M2.686 20.62l1.74.576.257.616-.734 1.543a.999.999 0 0 0 .09 1.009 10.997 10.997 0 0 0 2.598 2.598.997.997 0 0 0 1.008.089l1.544-.733.615.255.576 1.741a1 1 0 0 0 .95.686h3.34a1 1 0 0 0 .95-.686l.564-1.702q.337-.125.665-.277l1.506.716a.996.996 0 0 0 1.008-.089 11.007 11.007 0 0 0 2.599-2.598.999.999 0 0 0 .089-1.009l-.716-1.506q.152-.33.277-.665l1.702-.564a1 1 0 0 0 .686-.95v-3.34a1 1 0 0 0-.686-.95l-1.702-.563q-.124-.337-.277-.666l.716-1.506a.999.999 0 0 0-.09-1.009 11.014 11.014 0 0 0-2.597-2.599 1 1 0 0 0-1.009-.088l-1.506.716q-.328-.152-.665-.277l-.564-1.702A1 1 0 0 0 14.67 7h-3.34a1 1 0 0 0-.95.686l-.576 1.74-.616.256-1.544-.733a1.003 1.003 0 0 0-1.008.088 11.04 11.04 0 0 0-2.598 2.599.998.998 0 0 0-.089 1.008l.734 1.544-.256.616-1.741.576a1 1 0 0 0-.686.95v3.34a1 1 0 0 0 .686.95zM4 17.052l1.49-.493a1 1 0 0 0 .609-.566l.601-1.448a1.002 1.002 0 0 0-.02-.813l-.663-1.397a9.059 9.059 0 0 1 1.319-1.319l1.396.664a.998.998 0 0 0 .813.02l1.448-.6a1 1 0 0 0 .566-.61L12.052 9h1.896l.493 1.49a.999.999 0 0 0 .658.642 7.108 7.108 0 0 1 1.27.527 1.002 1.002 0 0 0 .899.02l1.396-.663a9.038 9.038 0 0 1 1.32 1.32l-.664 1.396a1.002 1.002 0 0 0 .02.9 7.208 7.208 0 0 1 .53 1.269.998.998 0 0 0 .64.658l1.49.493v1.896l-1.49.493a1 1 0 0 0-.64.658 7.249 7.249 0 0 1-.53 1.27 1.001 1.001 0 0 0-.02.9l.663 1.395a9.01 9.01 0 0 1-1.319 1.32l-1.396-.664a.995.995 0 0 0-.9.021 7.108 7.108 0 0 1-1.27.527.999.999 0 0 0-.657.643L13.948 27h-1.896l-.493-1.49a1 1 0 0 0-.566-.61l-1.448-.6a1.002 1.002 0 0 0-.813.02l-1.396.663a9.01 9.01 0 0 1-1.32-1.319l.664-1.396a1.003 1.003 0 0 0 .02-.813L6.1 20.007a1 1 0 0 0-.61-.566L4 18.948zM62 8H46a1 1 0 0 0-1 1v19a1 1 0 0 0 1 1h16a1 1 0 0 0 1-1V9a1 1 0 0 0-1-1zm-1 19H47V10h14z"></path><path d="M49 18h2v7h-2zM53 15h2v10h-2zM57 12h2v13h-2zM53 33h2v2h-2zM9 33h2v2H9zM58 55h2v2h-2zM58 59h2v2h-2zM60 57h2v2h-2zM56 57h2v2h-2zM4 55h2v2H4zM4 59h2v2H4zM6 57h2v2H6zM2 57h2v2H2z"></path></g><!----><g data-v-423bf9ae="" id="094aa1cb-b5ba-4987-a32d-93e14ec41ec8" fill="white" transform="matrix(0.2358171487745931,0,0,0.2358171487745931,25.557836219438684,207.22326635258491)"><path d="M4.19 6.69L4.19 6.69L4.19 6.69Q3.63 6.69 3.33 6.38L3.33 6.38L3.33 6.38Q3.02 6.06 3.02 5.61L3.02 5.61L3.02 5.61Q3.02 5.50 3.06 5.35L3.06 5.35L3.06 5.35Q3.09 5.19 3.15 5.08L3.15 5.08L3.15 5.08Q3.33 5.17 3.69 5.20L3.69 5.20L3.69 5.20Q4.05 5.24 4.52 5.24L4.52 5.24L4.52 5.24Q5.24 5.24 6.14 5.17L6.14 5.17L6.14 5.17Q7.04 5.11 7.87 5.04L7.87 5.04L7.87 5.04Q8.69 4.97 9.32 4.91L9.32 4.91L9.32 4.91Q9.95 4.84 10.14 4.84L10.14 4.84L10.14 4.84Q10.65 4.84 10.88 5.23L10.88 5.23L10.88 5.23Q11.12 5.61 11.23 6.26L11.23 6.26L11.23 6.26Q10.86 6.23 10.51 6.21L10.51 6.21L10.51 6.21Q10.15 6.19 9.90 6.19L9.90 6.19L9.90 6.19Q9.45 6.19 9.00 6.22L9.00 6.22L9.00 6.22Q8.54 6.24 8.08 6.30L8.08 6.30L8.08 6.30Q7.88 6.71 7.64 7.26L7.64 7.26L7.64 7.26Q7.41 7.81 7.17 8.41L7.17 8.41L7.17 8.41Q6.94 9.02 6.73 9.61L6.73 9.61L6.73 9.61Q6.52 10.21 6.37 10.68L6.37 10.68L6.37 10.68Q6.06 11.61 5.83 12.39L5.83 12.39L5.83 12.39Q5.60 13.17 5.42 13.85L5.42 13.85L5.42 13.85Q5.25 14.53 5.12 15.15L5.12 15.15L5.12 15.15Q5.00 15.76 4.90 16.35L4.90 16.35L4.90 16.35Q3.96 16.21 3.33 15.18L3.33 15.18L3.33 15.18Q3.44 14.74 3.60 14.23L3.60 14.23L3.60 14.23Q3.77 13.72 3.98 13.07L3.98 13.07L3.98 13.07Q4.20 12.42 4.49 11.59L4.49 11.59L4.49 11.59Q4.79 10.77 5.17 9.72L5.17 9.72L5.17 9.72Q5.31 9.32 5.46 8.90L5.46 8.90L5.46 8.90Q5.61 8.47 5.76 8.05L5.76 8.05L5.76 8.05Q5.91 7.63 6.03 7.24L6.03 7.24L6.03 7.24Q6.15 6.85 6.23 6.52L6.23 6.52L6.23 6.52Q5.64 6.59 5.12 6.64L5.12 6.64L5.12 6.64Q4.59 6.69 4.19 6.69ZM22.11 14.36L22.11 14.36L22.11 14.36Q22.11 13.78 22.30 12.85L22.30 12.85L22.30 12.85Q22.50 11.93 22.82 10.88L22.82 10.88L22.82 10.88Q21.90 10.95 20.96 11.06L20.96 11.06L20.96 11.06Q20.03 11.17 19.35 11.19L19.35 11.19L19.35 11.19Q18.72 12.66 18.35 13.89L18.35 13.89L18.35 13.89Q17.98 15.13 17.77 16.31L17.77 16.31L17.77 16.31Q17.23 16.18 16.88 15.87L16.88 15.87L16.88 15.87Q16.53 15.55 16.24 15.08L16.24 15.08L16.24 15.08Q16.35 14.85 16.50 14.50L16.50 14.50L16.50 14.50Q16.65 14.15 16.85 13.66L16.85 13.66L16.85 13.66Q17.05 13.16 17.31 12.50L17.31 12.50L17.31 12.50Q17.57 11.83 17.91 10.95L17.91 10.95L17.91 10.95Q17.44 10.75 17.29 10.40L17.29 10.40L17.29 10.40Q17.36 10.35 17.61 10.28L17.61 10.28L17.61 10.28Q17.85 10.22 18.21 10.15L18.21 10.15L18.40 9.70L18.40 9.70Q18.69 8.95 18.88 8.43L18.88 8.43L18.88 8.43Q19.07 7.91 19.20 7.41L19.20 7.41L19.20 7.41Q19.33 6.92 19.45 6.31L19.45 6.31L19.45 6.31Q19.57 5.71 19.74 4.79L19.74 4.79L19.74 4.79Q20.33 4.90 20.81 5.31L20.81 5.31L20.81 5.31Q21.29 5.71 21.64 6.29L21.64 6.29L21.64 6.29Q21.52 6.45 21.34 6.79L21.34 6.79L21.34 6.79Q21.15 7.13 20.94 7.59L20.94 7.59L20.94 7.59Q20.72 8.06 20.47 8.64L20.47 8.64L20.47 8.64Q20.22 9.23 19.92 9.87L19.92 9.87L19.92 9.87Q20.79 9.76 21.68 9.66L21.68 9.66L21.68 9.66Q22.57 9.56 23.25 9.52L23.25 9.52L23.25 9.52Q23.51 8.79 23.78 8.10L23.78 8.10L23.78 8.10Q24.05 7.41 24.32 6.83L24.32 6.83L24.32 6.83Q24.58 6.26 24.83 5.82L24.83 5.82L24.83 5.82Q25.07 5.39 25.27 5.18L25.27 5.18L25.27 5.18Q25.41 5.19 25.64 5.29L25.64 5.29L25.64 5.29Q25.87 5.38 26.11 5.50L26.11 5.50L26.11 5.50Q26.35 5.63 26.54 5.78L26.54 5.78L26.54 5.78Q26.74 5.92 26.81 6.05L26.81 6.05L26.81 6.05Q26.56 6.29 26.31 6.66L26.31 6.66L26.31 6.66Q26.05 7.04 25.81 7.53L25.81 7.53L25.81 7.53Q25.56 8.02 25.33 8.60L25.33 8.60L25.33 8.60Q25.09 9.17 24.88 9.79L24.88 9.79L24.88 9.79Q25.16 10.04 25.16 10.42L25.16 10.42L25.16 10.42Q25.16 10.68 25.05 10.91L25.05 10.91L25.05 10.91Q24.92 10.88 24.79 10.87L24.79 10.87L24.79 10.87Q24.67 10.86 24.53 10.85L24.53 10.85L24.53 10.85Q24.29 11.61 24.09 12.35L24.09 12.35L24.09 12.35Q23.90 13.09 23.77 13.76L23.77 13.76L23.77 13.76Q23.63 14.43 23.55 14.99L23.55 14.99L23.55 14.99Q23.48 15.55 23.48 15.93L23.48 15.93L23.48 15.93Q23.48 16.07 23.48 16.16L23.48 16.16L23.48 16.16Q23.49 16.24 23.51 16.30L23.51 16.30L23.51 16.30Q23.20 16.28 23.06 16.19L23.06 16.19L23.06 16.19Q22.92 16.10 22.85 16.00L22.85 16.00L22.85 16.00Q22.78 15.89 22.72 15.79L22.72 15.79L22.72 15.79Q22.67 15.68 22.54 15.62L22.54 15.62L22.54 15.62Q22.44 15.58 22.36 15.43L22.36 15.43L22.36 15.43Q22.27 15.27 22.22 15.08L22.22 15.08L22.22 15.08Q22.16 14.88 22.13 14.69L22.13 14.69L22.13 14.69Q22.11 14.49 22.11 14.36ZM38.88 9.21L38.88 9.21L38.88 9.21Q39.34 9.21 39.60 9.46L39.60 9.46L39.60 9.46Q39.86 9.72 39.86 10.16L39.86 10.16L39.86 10.16Q39.86 10.28 39.84 10.39L39.84 10.39L39.84 10.39Q39.82 10.51 39.79 10.60L39.79 10.60L39.79 10.60Q39.61 10.57 39.38 10.55L39.38 10.55L39.38 10.55Q39.16 10.53 38.85 10.53L38.85 10.53L38.85 10.53Q38.25 10.53 37.63 10.63L37.63 10.63L37.63 10.63Q37.02 10.74 36.46 10.81L36.46 10.81L36.46 10.81Q36.13 11.55 35.87 12.24L35.87 12.24L35.87 12.24Q35.60 12.94 35.41 13.51L35.41 13.51L35.41 13.51Q35.22 14.08 35.12 14.50L35.12 14.50L35.12 14.50Q35.01 14.92 35 15.13L35 15.13L35 15.13Q36.13 14.90 37.29 14.73L37.29 14.73L37.29 14.73Q38.44 14.56 39.72 14.48L39.72 14.48L39.72 14.48Q39.87 14.71 39.98 14.99L39.98 14.99L39.98 14.99Q40.08 15.27 40.08 15.60L40.08 15.60L40.08 15.60Q40.08 15.68 40.08 15.78L40.08 15.78L40.08 15.78Q40.08 15.88 40.05 15.97L40.05 15.97L40.05 15.97Q39.66 15.96 39.23 15.95L39.23 15.95L39.23 15.95Q38.79 15.95 38.09 15.95L38.09 15.95L38.09 15.95Q37.63 15.95 37.22 15.97L37.22 15.97L37.22 15.97Q36.81 15.99 36.39 16.03L36.39 16.03L36.39 16.03Q35.97 16.07 35.50 16.14L35.50 16.14L35.50 16.14Q35.03 16.21 34.44 16.31L34.44 16.31L34.44 16.31Q33.80 16.06 33.19 15.08L33.19 15.08L33.19 15.08Q33.43 14.57 33.86 13.54L33.86 13.54L33.86 13.54Q34.29 12.52 34.94 10.79L34.94 10.79L34.94 10.79Q34.31 10.60 34.12 10.09L34.12 10.09L34.12 10.09Q34.19 10.02 34.52 9.92L34.52 9.92L34.52 9.92Q34.86 9.81 35.35 9.70L35.35 9.70L35.35 9.70Q35.56 9.16 35.71 8.75L35.71 8.75L35.71 8.75Q35.85 8.34 35.97 7.99L35.97 7.99L35.97 7.99Q36.08 7.63 36.17 7.29L36.17 7.29L36.17 7.29Q36.26 6.94 36.34 6.54L36.34 6.54L36.34 6.54Q35.85 6.51 35.57 6.27L35.57 6.27L35.57 6.27Q35.29 6.02 35.29 5.63L35.29 5.63L35.29 5.63Q35.29 5.52 35.33 5.36L35.33 5.36L35.33 5.36Q35.36 5.21 35.41 5.10L35.41 5.10L35.41 5.10Q35.69 5.14 35.95 5.15L35.95 5.15L35.95 5.15Q36.20 5.17 36.62 5.17L36.62 5.17L36.62 5.17Q37.51 5.17 38.28 5.12L38.28 5.12L38.28 5.12Q39.05 5.07 39.67 5.01L39.67 5.01L39.67 5.01Q40.29 4.96 40.74 4.91L40.74 4.91L40.74 4.91Q41.19 4.86 41.43 4.86L41.43 4.86L41.43 4.86Q41.75 4.86 42 5.19L42 5.19L42 5.19Q42.25 5.53 42.38 6.15L42.38 6.15L42.38 6.15Q41.94 6.10 41.67 6.09L41.67 6.09L41.67 6.09Q41.40 6.08 41.19 6.08L41.19 6.08L41.19 6.08Q40.42 6.08 39.78 6.15L39.78 6.15L39.78 6.15Q39.14 6.23 38.56 6.31L38.56 6.31L38.56 6.31Q38.47 6.44 38.37 6.64L38.37 6.64L38.37 6.64Q38.26 6.83 38.09 7.18L38.09 7.18L38.09 7.18Q37.93 7.53 37.68 8.06L37.68 8.06L37.68 8.06Q37.44 8.60 37.09 9.39L37.09 9.39L37.09 9.39Q37.62 9.31 38.09 9.26L38.09 9.26L38.09 9.26Q38.56 9.21 38.88 9.21ZM64.74 16.21L64.74 16.21L64.74 16.21Q64.71 16.23 64.68 16.23L64.68 16.23L64.68 16.23Q64.65 16.23 64.57 16.23L64.57 16.23L64.57 16.23Q64.37 16.23 64.11 16.16L64.11 16.16L64.11 16.16Q63.85 16.10 63.61 16.01L63.61 16.01L63.61 16.01Q63.36 15.92 63.19 15.81L63.19 15.81L63.19 15.81Q63.01 15.69 62.97 15.61L62.97 15.61L62.97 15.61Q62.96 15.41 62.96 15.20L62.96 15.20L62.96 15.20Q62.96 14.99 62.96 14.80L62.96 14.80L62.96 14.80Q62.96 13.23 63.19 11.52L63.19 11.52L63.19 11.52Q63.42 9.81 63.95 7.83L63.95 7.83L63.95 7.83Q64.01 7.63 64.07 7.33L64.07 7.33L64.07 7.33Q64.13 7.03 64.20 6.68L64.20 6.68L64.20 6.68Q63.87 6.94 63.41 7.53L63.41 7.53L63.41 7.53Q62.94 8.11 62.43 8.90L62.43 8.90L62.43 8.90Q61.92 9.69 61.41 10.63L61.41 10.63L61.41 10.63Q60.90 11.58 60.48 12.55L60.48 12.55L60.48 12.55Q60.06 13.52 59.76 14.48L59.76 14.48L59.76 14.48Q59.46 15.43 59.39 16.24L59.39 16.24L59.39 16.24Q58.72 16.04 58.46 15.85L58.46 15.85L58.46 15.85Q58.20 15.65 58.20 15.37L58.20 15.37L58.20 15.37Q58.20 15.12 58.35 14.66L58.35 14.66L58.35 14.66Q58.51 14.20 58.79 13.57L58.79 13.57L58.79 13.57Q59.07 12.94 59.47 12.16L59.47 12.16L59.47 12.16Q59.88 11.38 60.37 10.49L60.37 10.49L60.37 10.49Q60.93 9.46 61.47 8.57L61.47 8.57L61.47 8.57Q62.01 7.67 62.52 6.94L62.52 6.94L62.52 6.94Q63.04 6.22 63.54 5.68L63.54 5.68L63.54 5.68Q64.04 5.15 64.53 4.87L64.53 4.87L64.53 4.87Q64.72 4.87 65.05 4.97L65.05 4.97L65.05 4.97Q65.38 5.07 65.69 5.21L65.69 5.21L65.69 5.21Q66.01 5.35 66.25 5.49L66.25 5.49L66.25 5.49Q66.50 5.64 66.53 5.74L66.53 5.74L66.53 5.74Q66.33 6.13 66.07 6.92L66.07 6.92L66.07 6.92Q65.80 7.70 65.53 8.69L65.53 8.69L65.53 8.69Q65.25 9.69 65.01 10.80L65.01 10.80L65.01 10.80Q64.76 11.91 64.62 12.94L64.62 12.94L64.62 12.94Q64.95 12.17 65.37 11.33L65.37 11.33L65.37 11.33Q65.80 10.50 66.28 9.68L66.28 9.68L66.28 9.68Q66.75 8.86 67.25 8.09L67.25 8.09L67.25 8.09Q67.75 7.32 68.22 6.69L68.22 6.69L68.22 6.69Q68.70 6.05 69.11 5.57L69.11 5.57L69.11 5.57Q69.52 5.10 69.85 4.87L69.85 4.87L69.85 4.87Q70.04 4.87 70.37 4.97L70.37 4.97L70.37 4.97Q70.70 5.07 71.02 5.21L71.02 5.21L71.02 5.21Q71.33 5.35 71.58 5.49L71.58 5.49L71.58 5.49Q71.82 5.64 71.85 5.74L71.85 5.74L71.85 5.74Q71.40 6.54 71.06 7.69L71.06 7.69L71.06 7.69Q70.73 8.83 70.50 10.09L70.50 10.09L70.50 10.09Q70.27 11.35 70.15 12.59L70.15 12.59L70.15 12.59Q70.03 13.83 70.03 14.81L70.03 14.81L70.03 14.81Q70.03 15.13 70.03 15.48L70.03 15.48L70.03 15.48Q70.03 15.83 70.06 16.21L70.06 16.21L70.06 16.21Q69.86 16.21 69.59 16.16L69.59 16.16L69.59 16.16Q69.31 16.11 69.06 16.03L69.06 16.03L69.06 16.03Q68.80 15.95 68.59 15.84L68.59 15.84L68.59 15.84Q68.38 15.74 68.29 15.61L68.29 15.61L68.29 15.61Q68.28 15.41 68.28 15.20L68.28 15.20L68.28 15.20Q68.28 14.99 68.28 14.80L68.28 14.80L68.28 14.80Q68.28 13.23 68.51 11.52L68.51 11.52L68.51 11.52Q68.74 9.81 69.27 7.83L69.27 7.83L69.27 7.83Q69.33 7.63 69.40 7.29L69.40 7.29L69.40 7.29Q69.47 6.96 69.54 6.59L69.54 6.59L69.54 6.59Q69.15 6.79 68.65 7.34L68.65 7.34L68.65 7.34Q68.15 7.90 67.64 8.69L67.64 8.69L67.64 8.69Q67.13 9.48 66.63 10.44L66.63 10.44L66.63 10.44Q66.14 11.41 65.74 12.41L65.74 12.41L65.74 12.41Q65.34 13.41 65.06 14.40L65.06 14.40L65.06 14.40Q64.79 15.39 64.74 16.21ZM79.48 14.38L79.48 14.38L79.48 14.38Q79.48 13.87 79.64 13.07L79.64 13.07L79.64 13.07Q79.80 12.26 80.06 11.33L80.06 11.33L80.06 11.33Q80.32 10.40 80.65 9.43L80.65 9.43L80.65 9.43Q80.99 8.46 81.34 7.60L81.34 7.60L81.34 7.60Q81.69 6.75 82.03 6.10L82.03 6.10L82.03 6.10Q82.36 5.46 82.63 5.18L82.63 5.18L82.63 5.18Q82.77 5.19 83.00 5.29L83.00 5.29L83.00 5.29Q83.23 5.38 83.47 5.50L83.47 5.50L83.47 5.50Q83.71 5.63 83.90 5.78L83.90 5.78L83.90 5.78Q84.10 5.92 84.15 6.05L84.15 6.05L84.15 6.05Q83.75 6.41 83.35 7.15L83.35 7.15L83.35 7.15Q82.95 7.88 82.58 8.82L82.58 8.82L82.58 8.82Q82.21 9.76 81.89 10.80L81.89 10.80L81.89 10.80Q81.56 11.84 81.33 12.82L81.33 12.82L81.33 12.82Q81.09 13.80 80.95 14.64L80.95 14.64L80.95 14.64Q80.82 15.48 80.82 16.00L80.82 16.00L80.82 16.00Q80.82 16.24 80.86 16.30L80.86 16.30L80.86 16.30Q80.56 16.28 80.42 16.19L80.42 16.19L80.42 16.19Q80.28 16.10 80.20 16.00L80.20 16.00L80.20 16.00Q80.12 15.89 80.06 15.79L80.06 15.79L80.06 15.79Q80.00 15.68 79.87 15.62L79.87 15.62L79.87 15.62Q79.77 15.58 79.70 15.43L79.70 15.43L79.70 15.43Q79.63 15.27 79.58 15.09L79.58 15.09L79.58 15.09Q79.53 14.90 79.51 14.70L79.51 14.70L79.51 14.70Q79.48 14.50 79.48 14.38ZM99.60 5.74L99.60 5.74L99.60 5.74Q99.64 5.98 99.66 6.07L99.66 6.07L99.66 6.07Q99.68 6.16 99.68 6.31L99.68 6.31L99.68 6.31Q99.68 6.78 99.48 7.18L99.48 7.18L99.48 7.18Q99.27 7.57 98.92 7.74L98.92 7.74L98.92 7.74Q98.64 7.36 98.24 7.09L98.24 7.09L98.24 7.09Q97.83 6.82 97.35 6.64L97.35 6.64L97.35 6.64Q96.87 6.47 96.35 6.38L96.35 6.38L96.35 6.38Q95.83 6.30 95.34 6.30L95.34 6.30L95.34 6.30Q94.85 6.30 94.42 6.38L94.42 6.38L94.42 6.38Q94.00 6.45 93.67 6.59L93.67 6.59L93.67 6.59Q93.34 6.72 93.15 6.92L93.15 6.92L93.15 6.92Q92.96 7.11 92.96 7.36L92.96 7.36L92.96 7.36Q93.00 7.67 93.34 7.99L93.34 7.99L93.34 7.99Q93.67 8.30 94.16 8.60L94.16 8.60L94.16 8.60Q94.65 8.90 95.25 9.20L95.25 9.20L95.25 9.20Q95.84 9.49 96.42 9.76L96.42 9.76L96.42 9.76Q97.13 10.09 97.65 10.38L97.65 10.38L97.65 10.38Q98.17 10.67 98.50 11.01L98.50 11.01L98.50 11.01Q98.84 11.35 99.01 11.79L99.01 11.79L99.01 11.79Q99.18 12.22 99.18 12.84L99.18 12.84L99.18 12.84Q99.18 13.55 98.94 14.18L98.94 14.18L98.94 14.18Q98.70 14.80 98.24 15.26L98.24 15.26L98.24 15.26Q97.79 15.72 97.15 15.98L97.15 15.98L97.15 15.98Q96.50 16.24 95.70 16.24L95.70 16.24L95.70 16.24Q94.92 16.24 94.01 16.00L94.01 16.00L94.01 16.00Q93.10 15.76 92.31 15.35L92.31 15.35L92.31 15.35Q91.52 14.94 90.99 14.40L90.99 14.40L90.99 14.40Q90.47 13.86 90.47 13.26L90.47 13.26L90.47 13.26Q90.47 12.98 90.63 12.54L90.63 12.54L90.63 12.54Q90.79 12.11 91.21 11.63L91.21 11.63L91.21 11.63Q91.25 12.05 91.66 12.63L91.66 12.63L91.66 12.63Q92.08 13.20 92.90 13.69L92.90 13.69L92.90 13.69Q93.67 14.14 94.49 14.34L94.49 14.34L94.49 14.34Q95.31 14.55 96.03 14.55L96.03 14.55L96.03 14.55Q96.81 14.55 97.30 14.35L97.30 14.35L97.30 14.35Q97.79 14.15 98.07 13.88L98.07 13.88L98.07 13.88Q98.35 13.61 98.46 13.33L98.46 13.33L98.46 13.33Q98.57 13.05 98.59 12.88L98.59 12.88L98.59 12.88Q98.57 12.60 98.33 12.34L98.33 12.34L98.33 12.34Q98.08 12.08 97.67 11.84L97.67 11.84L97.67 11.84Q97.26 11.59 96.71 11.34L96.71 11.34L96.71 11.34Q96.17 11.09 95.58 10.84L95.58 10.84L95.58 10.84Q94.70 10.44 94.06 10.10L94.06 10.10L94.06 10.10Q93.42 9.76 93.01 9.40L93.01 9.40L93.01 9.40Q92.60 9.04 92.41 8.65L92.41 8.65L92.41 8.65Q92.22 8.26 92.22 7.76L92.22 7.76L92.22 7.76Q92.22 6.97 92.69 6.27L92.69 6.27L92.69 6.27Q93.17 5.57 94.07 5.21L94.07 5.21L94.07 5.21Q94.51 5.01 95.02 4.93L95.02 4.93L95.02 4.93Q95.54 4.84 96.03 4.84L96.03 4.84L96.03 4.84Q96.95 4.84 97.83 5.10L97.83 5.10L97.83 5.10Q98.71 5.35 99.60 5.74ZM116.42 5.74L116.42 5.74L116.42 5.74Q116.47 5.98 116.49 6.07L116.49 6.07L116.49 6.07Q116.51 6.16 116.51 6.31L116.51 6.31L116.51 6.31Q116.51 6.78 116.30 7.18L116.30 7.18L116.30 7.18Q116.10 7.57 115.75 7.74L115.75 7.74L115.75 7.74Q115.47 7.36 115.07 7.09L115.07 7.09L115.07 7.09Q114.66 6.82 114.18 6.64L114.18 6.64L114.18 6.64Q113.69 6.47 113.18 6.38L113.18 6.38L113.18 6.38Q112.66 6.30 112.17 6.30L112.17 6.30L112.17 6.30Q111.68 6.30 111.25 6.38L111.25 6.38L111.25 6.38Q110.82 6.45 110.49 6.59L110.49 6.59L110.49 6.59Q110.17 6.72 109.98 6.92L109.98 6.92L109.98 6.92Q109.79 7.11 109.79 7.36L109.79 7.36L109.79 7.36Q109.83 7.67 110.17 7.99L110.17 7.99L110.17 7.99Q110.50 8.30 110.99 8.60L110.99 8.60L110.99 8.60Q111.48 8.90 112.08 9.20L112.08 9.20L112.08 9.20Q112.67 9.49 113.25 9.76L113.25 9.76L113.25 9.76Q113.96 10.09 114.48 10.38L114.48 10.38L114.48 10.38Q115.00 10.67 115.33 11.01L115.33 11.01L115.33 11.01Q115.67 11.35 115.84 11.79L115.84 11.79L115.84 11.79Q116.00 12.22 116.00 12.84L116.00 12.84L116.00 12.84Q116.00 13.55 115.77 14.18L115.77 14.18L115.77 14.18Q115.53 14.80 115.07 15.26L115.07 15.26L115.07 15.26Q114.62 15.72 113.97 15.98L113.97 15.98L113.97 15.98Q113.33 16.24 112.53 16.24L112.53 16.24L112.53 16.24Q111.75 16.24 110.84 16.00L110.84 16.00L110.84 16.00Q109.93 15.76 109.14 15.35L109.14 15.35L109.14 15.35Q108.35 14.94 107.82 14.40L107.82 14.40L107.82 14.40Q107.30 13.86 107.30 13.26L107.30 13.26L107.30 13.26Q107.30 12.98 107.46 12.54L107.46 12.54L107.46 12.54Q107.62 12.11 108.04 11.63L108.04 11.63L108.04 11.63Q108.08 12.05 108.49 12.63L108.49 12.63L108.49 12.63Q108.91 13.20 109.73 13.69L109.73 13.69L109.73 13.69Q110.50 14.14 111.32 14.34L111.32 14.34L111.32 14.34Q112.14 14.55 112.85 14.55L112.85 14.55L112.85 14.55Q113.64 14.55 114.13 14.35L114.13 14.35L114.13 14.35Q114.62 14.15 114.90 13.88L114.90 13.88L114.90 13.88Q115.18 13.61 115.29 13.33L115.29 13.33L115.29 13.33Q115.40 13.05 115.42 12.88L115.42 12.88L115.42 12.88Q115.40 12.60 115.16 12.34L115.16 12.34L115.16 12.34Q114.91 12.08 114.50 11.84L114.50 11.84L114.50 11.84Q114.09 11.59 113.54 11.34L113.54 11.34L113.54 11.34Q112.99 11.09 112.41 10.84L112.41 10.84L112.41 10.84Q111.52 10.44 110.89 10.10L110.89 10.10L110.89 10.10Q110.25 9.76 109.84 9.40L109.84 9.40L109.84 9.40Q109.42 9.04 109.23 8.65L109.23 8.65L109.23 8.65Q109.05 8.26 109.05 7.76L109.05 7.76L109.05 7.76Q109.05 6.97 109.52 6.27L109.52 6.27L109.52 6.27Q110.00 5.57 110.89 5.21L110.89 5.21L110.89 5.21Q111.34 5.01 111.85 4.93L111.85 4.93L111.85 4.93Q112.36 4.84 112.85 4.84L112.85 4.84L112.85 4.84Q113.78 4.84 114.66 5.10L114.66 5.10L114.66 5.10Q115.54 5.35 116.42 5.74ZM124.54 14.38L124.54 14.38L124.54 14.38Q124.54 13.87 124.70 13.07L124.70 13.07L124.70 13.07Q124.87 12.26 125.13 11.33L125.13 11.33L125.13 11.33Q125.38 10.40 125.72 9.43L125.72 9.43L125.72 9.43Q126.06 8.46 126.41 7.60L126.41 7.60L126.41 7.60Q126.76 6.75 127.09 6.10L127.09 6.10L127.09 6.10Q127.43 5.46 127.69 5.18L127.69 5.18L127.69 5.18Q127.83 5.19 128.06 5.29L128.06 5.29L128.06 5.29Q128.30 5.38 128.53 5.50L128.53 5.50L128.53 5.50Q128.77 5.63 128.97 5.78L128.97 5.78L128.97 5.78Q129.16 5.92 129.22 6.05L129.22 6.05L129.22 6.05Q128.81 6.41 128.41 7.15L128.41 7.15L128.41 7.15Q128.02 7.88 127.64 8.82L127.64 8.82L127.64 8.82Q127.27 9.76 126.95 10.80L126.95 10.80L126.95 10.80Q126.63 11.84 126.39 12.82L126.39 12.82L126.39 12.82Q126.15 13.80 126.02 14.64L126.02 14.64L126.02 14.64Q125.89 15.48 125.89 16.00L125.89 16.00L125.89 16.00Q125.89 16.24 125.93 16.30L125.93 16.30L125.93 16.30Q125.62 16.28 125.48 16.19L125.48 16.19L125.48 16.19Q125.34 16.10 125.27 16.00L125.27 16.00L125.27 16.00Q125.19 15.89 125.13 15.79L125.13 15.79L125.13 15.79Q125.06 15.68 124.94 15.62L124.94 15.62L124.94 15.62Q124.84 15.58 124.77 15.43L124.77 15.43L124.77 15.43Q124.70 15.27 124.65 15.09L124.65 15.09L124.65 15.09Q124.60 14.90 124.57 14.70L124.57 14.70L124.57 14.70Q124.54 14.50 124.54 14.38ZM136.78 16.24L136.78 16.24L136.78 16.24Q135.98 16.00 135.70 15.79L135.70 15.79L135.70 15.79Q135.42 15.57 135.42 15.19L135.42 15.19L135.42 15.19Q135.42 14.77 135.62 14.01L135.62 14.01L135.62 14.01Q135.81 13.24 136.13 12.31L136.13 12.31L136.13 12.31Q136.44 11.37 136.85 10.35L136.85 10.35L136.85 10.35Q137.26 9.32 137.68 8.39L137.68 8.39L137.68 8.39Q138.10 7.45 138.50 6.67L138.50 6.67L138.50 6.67Q138.89 5.89 139.20 5.46L139.20 5.46L139.10 4.87L139.10 4.87Q139.30 4.87 139.65 4.97L139.65 4.97L139.65 4.97Q140 5.07 140.36 5.21L140.36 5.21L140.36 5.21Q140.71 5.35 140.99 5.49L140.99 5.49L140.99 5.49Q141.26 5.64 141.29 5.74L141.29 5.74L141.29 5.74Q141.22 6.08 141.18 6.76L141.18 6.76L141.18 6.76Q141.13 7.43 141.13 8.20L141.13 8.20L141.13 8.20Q141.13 9.73 141.25 11.19L141.25 11.19L141.25 11.19Q141.37 12.66 141.81 14.17L141.81 14.17L141.81 14.17Q142.03 13.05 142.29 11.94L142.29 11.94L142.29 11.94Q142.55 10.82 142.83 9.81L142.83 9.81L142.83 9.81Q143.11 8.79 143.39 7.92L143.39 7.92L143.39 7.92Q143.67 7.06 143.93 6.40L143.93 6.40L143.93 6.40Q144.19 5.75 144.41 5.38L144.41 5.38L144.41 5.38Q144.63 5.01 144.82 4.98L144.82 4.98L144.82 4.98Q144.97 5.01 145.15 5.10L145.15 5.10L145.15 5.10Q145.33 5.19 145.50 5.32L145.50 5.32L145.50 5.32Q145.67 5.45 145.81 5.60L145.81 5.60L145.81 5.60Q145.95 5.75 146.03 5.91L146.03 5.91L146.03 5.91Q145.59 6.09 145.15 6.76L145.15 6.76L145.15 6.76Q144.70 7.43 144.31 8.39L144.31 8.39L144.31 8.39Q143.91 9.35 143.56 10.47L143.56 10.47L143.56 10.47Q143.22 11.59 142.96 12.68L142.96 12.68L142.96 12.68Q142.70 13.76 142.56 14.69L142.56 14.69L142.56 14.69Q142.41 15.61 142.39 16.17L142.39 16.17L142.39 16.17Q142.39 16.20 142.41 16.21L142.41 16.21L142.41 16.21Q142.37 16.23 142.32 16.23L142.32 16.23L142.32 16.23Q142.27 16.23 142.23 16.23L142.23 16.23L142.23 16.23Q141.58 16.23 141.09 16.07L141.09 16.07L141.09 16.07Q140.59 15.90 140.43 15.61L140.43 15.61L140.43 15.61Q140.14 14.43 139.94 13.34L139.94 13.34L139.94 13.34Q139.75 12.25 139.62 11.16L139.62 11.16L139.62 11.16Q139.48 10.07 139.41 8.95L139.41 8.95L139.41 8.95Q139.33 7.84 139.29 6.62L139.29 6.62L139.29 6.62Q139.02 7.04 138.73 7.72L138.73 7.72L138.73 7.72Q138.43 8.40 138.15 9.21L138.15 9.21L138.15 9.21Q137.87 10.02 137.61 10.92L137.61 10.92L137.61 10.92Q137.35 11.82 137.16 12.67L137.16 12.67L137.16 12.67Q136.96 13.52 136.85 14.29L136.85 14.29L136.85 14.29Q136.74 15.05 136.74 15.61L136.74 15.61L136.74 15.61Q136.74 15.90 136.75 16.03L136.75 16.03L136.75 16.03Q136.75 16.16 136.78 16.24ZM159.85 10.72L159.85 10.72L159.85 10.72Q160.22 10.72 160.43 10.98L160.43 10.98L160.43 10.98Q160.64 11.23 160.64 11.68L160.64 11.68L160.64 11.68Q160.64 11.79 160.62 11.91L160.62 11.91L160.62 11.91Q160.61 12.03 160.58 12.11L160.58 12.11L160.58 12.11Q160.29 12.04 159.94 12.03L159.94 12.03L159.94 12.03Q159.85 12.64 159.49 13.32L159.49 13.32L159.49 13.32Q159.12 14 158.61 14.60L158.61 14.60L158.61 14.60Q158.09 15.19 157.47 15.64L157.47 15.64L157.47 15.64Q156.86 16.09 156.25 16.24L156.25 16.24L156.25 16.24Q154.38 16.20 153.52 15.27L153.52 15.27L153.52 15.27Q152.66 14.34 152.66 12.36L152.66 12.36L152.66 12.36Q152.66 10.92 153.19 9.57L153.19 9.57L153.19 9.57Q153.72 8.22 154.60 7.17L154.60 7.17L154.60 7.17Q155.48 6.12 156.63 5.48L156.63 5.48L156.63 5.48Q157.77 4.84 159.00 4.84L159.00 4.84L159.00 4.84Q159.96 4.84 160.50 5.25L160.50 5.25L160.50 5.25Q161.04 5.66 161.04 6.40L161.04 6.40L161.04 6.40Q161.04 6.89 160.81 7.31L160.81 7.31L160.81 7.31Q160.58 7.73 160.05 8.22L160.05 8.22L160.05 8.22Q159.73 8.12 159.49 7.88L159.49 7.88L159.49 7.88Q159.25 7.63 159.19 7.31L159.19 7.31L159.19 7.31Q159.67 6.96 159.87 6.66L159.87 6.66L159.87 6.66Q160.06 6.37 160.06 5.96L160.06 5.96L160.06 5.96Q160.06 5.32 159.29 5.32L159.29 5.32L159.29 5.32Q158.66 5.32 157.94 5.79L157.94 5.79L157.94 5.79Q157.22 6.26 156.49 7.14L156.49 7.14L156.49 7.14Q155.46 8.39 154.98 9.71L154.98 9.71L154.98 9.71Q154.50 11.03 154.50 12.68L154.50 12.68L154.50 12.68Q154.50 13.30 154.63 13.80L154.63 13.80L154.63 13.80Q154.76 14.31 154.97 14.69L154.97 14.69L154.97 14.69Q155.18 15.06 155.46 15.29L155.46 15.29L155.46 15.29Q155.75 15.51 156.09 15.54L156.09 15.54L156.09 15.54Q156.53 15.44 156.98 15.09L156.98 15.09L156.98 15.09Q157.43 14.73 157.80 14.25L157.80 14.25L157.80 14.25Q158.17 13.76 158.43 13.21L158.43 13.21L158.43 13.21Q158.69 12.66 158.75 12.15L158.75 12.15L158.75 12.15Q158.35 12.24 158.00 12.31L158.00 12.31L158.00 12.31Q157.64 12.39 157.32 12.39L157.32 12.39L157.32 12.39Q156.90 12.39 156.58 12.18L156.58 12.18L156.58 12.18Q156.27 11.97 156.16 11.61L156.16 11.61L156.16 11.61Q156.41 11.47 156.89 11.31L156.89 11.31L156.89 11.31Q157.37 11.16 157.92 11.03L157.92 11.03L157.92 11.03Q158.47 10.89 158.99 10.81L158.99 10.81L158.99 10.81Q159.52 10.72 159.85 10.72ZM188.06 7.63L188.06 7.63L188.06 7.63Q188.06 8.40 187.68 9.10L187.68 9.10L187.68 9.10Q187.29 9.80 186.64 10.32L186.64 10.32L186.64 10.32Q185.99 10.85 185.12 11.16L185.12 11.16L185.12 11.16Q184.24 11.47 183.26 11.47L183.26 11.47L183.26 11.47Q182.91 11.47 182.71 11.38L182.71 11.38L182.71 11.38Q182.50 11.28 182.25 11.02L182.25 11.02L182.25 11.02Q181.55 12.54 181.11 13.82L181.11 13.82L181.11 13.82Q180.67 15.11 180.42 16.31L180.42 16.31L180.42 16.31Q179.89 16.18 179.55 15.87L179.55 15.87L179.55 15.87Q179.21 15.55 178.93 15.08L178.93 15.08L178.93 15.08Q179.07 14.81 179.27 14.38L179.27 14.38L179.27 14.38Q179.47 13.94 179.75 13.31L179.75 13.31L179.75 13.31Q180.03 12.67 180.40 11.78L180.40 11.78L180.40 11.78Q180.77 10.89 181.27 9.70L181.27 9.70L181.27 9.70Q181.50 9.16 181.66 8.75L181.66 8.75L181.66 8.75Q181.83 8.34 181.96 7.99L181.96 7.99L181.96 7.99Q182.08 7.63 182.19 7.28L182.19 7.28L182.19 7.28Q182.29 6.93 182.41 6.51L182.41 6.51L182.41 6.51Q181.75 6.72 181.19 7L181.19 7L181.19 7Q180.64 7.28 180.28 7.59L180.28 7.59L180.28 7.59Q180.15 7.50 180.02 7.34L180.02 7.34L180.02 7.34Q179.89 7.17 179.77 6.96L179.77 6.96L179.77 6.96Q179.66 6.76 179.58 6.55L179.58 6.55L179.58 6.55Q179.49 6.34 179.48 6.17L179.48 6.17L179.48 6.17Q179.89 5.89 180.49 5.66L180.49 5.66L180.49 5.66Q181.09 5.42 181.78 5.24L181.78 5.24L181.78 5.24Q182.46 5.07 183.20 4.97L183.20 4.97L183.20 4.97Q183.93 4.87 184.60 4.87L184.60 4.87L184.60 4.87Q185.40 4.87 186.05 5.07L186.05 5.07L186.05 5.07Q186.69 5.28 187.14 5.64L187.14 5.64L187.14 5.64Q187.59 6.01 187.82 6.51L187.82 6.51L187.82 6.51Q188.06 7.01 188.06 7.63ZM185.57 5.95L185.57 5.95L185.57 5.95Q185.04 5.95 184.48 6.03L184.48 6.03L184.65 6.29L184.65 6.29Q184.51 6.47 184.30 6.83L184.30 6.83L184.30 6.83Q184.09 7.20 183.83 7.71L183.83 7.71L183.83 7.71Q183.58 8.22 183.28 8.85L183.28 8.85L183.28 8.85Q182.98 9.48 182.64 10.18L182.64 10.18L182.64 10.18Q183.74 10.18 184.63 9.97L184.63 9.97L184.63 9.97Q185.53 9.77 186.16 9.41L186.16 9.41L186.16 9.41Q186.80 9.06 187.16 8.58L187.16 8.58L187.16 8.58Q187.52 8.11 187.52 7.56L187.52 7.56L187.52 7.56Q187.52 6.83 187.03 6.39L187.03 6.39L187.03 6.39Q186.54 5.95 185.57 5.95ZM194.94 14.38L194.94 14.38L194.94 14.38Q194.94 13.87 195.10 13.07L195.10 13.07L195.10 13.07Q195.26 12.26 195.52 11.33L195.52 11.33L195.52 11.33Q195.78 10.40 196.11 9.43L196.11 9.43L196.11 9.43Q196.45 8.46 196.80 7.60L196.80 7.60L196.80 7.60Q197.15 6.75 197.48 6.10L197.48 6.10L197.48 6.10Q197.82 5.46 198.09 5.18L198.09 5.18L198.09 5.18Q198.23 5.19 198.46 5.29L198.46 5.29L198.46 5.29Q198.69 5.38 198.93 5.50L198.93 5.50L198.93 5.50Q199.16 5.63 199.36 5.78L199.36 5.78L199.36 5.78Q199.56 5.92 199.61 6.05L199.61 6.05L199.61 6.05Q199.21 6.41 198.81 7.15L198.81 7.15L198.81 7.15Q198.41 7.88 198.04 8.82L198.04 8.82L198.04 8.82Q197.67 9.76 197.34 10.80L197.34 10.80L197.34 10.80Q197.02 11.84 196.78 12.82L196.78 12.82L196.78 12.82Q196.55 13.80 196.41 14.64L196.41 14.64L196.41 14.64Q196.28 15.48 196.28 16.00L196.28 16.00L196.28 16.00Q196.28 16.24 196.32 16.30L196.32 16.30L196.32 16.30Q196.01 16.28 195.87 16.19L195.87 16.19L195.87 16.19Q195.73 16.10 195.66 16.00L195.66 16.00L195.66 16.00Q195.58 15.89 195.52 15.79L195.52 15.79L195.52 15.79Q195.45 15.68 195.33 15.62L195.33 15.62L195.33 15.62Q195.23 15.58 195.16 15.43L195.16 15.43L195.16 15.43Q195.09 15.27 195.04 15.09L195.04 15.09L195.04 15.09Q194.99 14.90 194.96 14.70L194.96 14.70L194.96 14.70Q194.94 14.50 194.94 14.38ZM211.71 9.21L211.71 9.21L211.71 9.21Q212.17 9.21 212.43 9.46L212.43 9.46L212.43 9.46Q212.69 9.72 212.69 10.16L212.69 10.16L212.69 10.16Q212.69 10.28 212.67 10.39L212.67 10.39L212.67 10.39Q212.65 10.51 212.62 10.60L212.62 10.60L212.62 10.60Q212.44 10.57 212.21 10.55L212.21 10.55L212.21 10.55Q211.99 10.53 211.68 10.53L211.68 10.53L211.68 10.53Q211.08 10.53 210.46 10.63L210.46 10.63L210.46 10.63Q209.85 10.74 209.29 10.81L209.29 10.81L209.29 10.81Q208.96 11.55 208.70 12.24L208.70 12.24L208.70 12.24Q208.43 12.94 208.24 13.51L208.24 13.51L208.24 13.51Q208.05 14.08 207.95 14.50L207.95 14.50L207.95 14.50Q207.84 14.92 207.83 15.13L207.83 15.13L207.83 15.13Q208.96 14.90 210.12 14.73L210.12 14.73L210.12 14.73Q211.27 14.56 212.55 14.48L212.55 14.48L212.55 14.48Q212.70 14.71 212.81 14.99L212.81 14.99L212.81 14.99Q212.91 15.27 212.91 15.60L212.91 15.60L212.91 15.60Q212.91 15.68 212.91 15.78L212.91 15.78L212.91 15.78Q212.91 15.88 212.88 15.97L212.88 15.97L212.88 15.97Q212.49 15.96 212.06 15.95L212.06 15.95L212.06 15.95Q211.62 15.95 210.92 15.95L210.92 15.95L210.92 15.95Q210.46 15.95 210.05 15.97L210.05 15.97L210.05 15.97Q209.64 15.99 209.22 16.03L209.22 16.03L209.22 16.03Q208.80 16.07 208.33 16.14L208.33 16.14L208.33 16.14Q207.86 16.21 207.27 16.31L207.27 16.31L207.27 16.31Q206.63 16.06 206.02 15.08L206.02 15.08L206.02 15.08Q206.26 14.57 206.69 13.54L206.69 13.54L206.69 13.54Q207.12 12.52 207.77 10.79L207.77 10.79L207.77 10.79Q207.14 10.60 206.95 10.09L206.95 10.09L206.95 10.09Q207.02 10.02 207.35 9.92L207.35 9.92L207.35 9.92Q207.69 9.81 208.18 9.70L208.18 9.70L208.18 9.70Q208.39 9.16 208.54 8.75L208.54 8.75L208.54 8.75Q208.68 8.34 208.80 7.99L208.80 7.99L208.80 7.99Q208.91 7.63 209.00 7.29L209.00 7.29L209.00 7.29Q209.09 6.94 209.17 6.54L209.17 6.54L209.17 6.54Q208.68 6.51 208.40 6.27L208.40 6.27L208.40 6.27Q208.12 6.02 208.12 5.63L208.12 5.63L208.12 5.63Q208.12 5.52 208.16 5.36L208.16 5.36L208.16 5.36Q208.19 5.21 208.24 5.10L208.24 5.10L208.24 5.10Q208.52 5.14 208.78 5.15L208.78 5.15L208.78 5.15Q209.03 5.17 209.45 5.17L209.45 5.17L209.45 5.17Q210.34 5.17 211.11 5.12L211.11 5.12L211.11 5.12Q211.88 5.07 212.50 5.01L212.50 5.01L212.50 5.01Q213.12 4.96 213.57 4.91L213.57 4.91L213.57 4.91Q214.02 4.86 214.26 4.86L214.26 4.86L214.26 4.86Q214.58 4.86 214.83 5.19L214.83 5.19L214.83 5.19Q215.08 5.53 215.21 6.15L215.21 6.15L215.21 6.15Q214.77 6.10 214.50 6.09L214.50 6.09L214.50 6.09Q214.23 6.08 214.02 6.08L214.02 6.08L214.02 6.08Q213.25 6.08 212.61 6.15L212.61 6.15L212.61 6.15Q211.97 6.23 211.39 6.31L211.39 6.31L211.39 6.31Q211.30 6.44 211.20 6.64L211.20 6.64L211.20 6.64Q211.09 6.83 210.92 7.18L210.92 7.18L210.92 7.18Q210.76 7.53 210.51 8.06L210.51 8.06L210.51 8.06Q210.27 8.60 209.92 9.39L209.92 9.39L209.92 9.39Q210.45 9.31 210.92 9.26L210.92 9.26L210.92 9.26Q211.39 9.21 211.71 9.21ZM221.89 12.43L221.89 12.43L221.89 12.43Q221.89 11.45 222.12 10.51L222.12 10.51L222.12 10.51Q222.35 9.56 222.77 8.71L222.77 8.71L222.77 8.71Q223.19 7.87 223.77 7.16L223.77 7.16L223.77 7.16Q224.35 6.45 225.04 5.94L225.04 5.94L225.04 5.94Q225.74 5.42 226.52 5.13L226.52 5.13L226.52 5.13Q227.30 4.84 228.13 4.84L228.13 4.84L228.13 4.84Q229.10 4.84 229.64 5.25L229.64 5.25L229.64 5.25Q230.17 5.66 230.17 6.38L230.17 6.38L230.17 6.38Q230.17 6.66 230.10 6.96L230.10 6.96L230.10 6.96Q230.02 7.25 229.87 7.54L229.87 7.54L229.87 7.54Q229.73 7.83 229.53 8.09L229.53 8.09L229.53 8.09Q229.33 8.36 229.10 8.55L229.10 8.55L229.10 8.55Q228.73 8.50 228.47 8.22L228.47 8.22L228.47 8.22Q228.20 7.95 228.13 7.59L228.13 7.59L228.13 7.59Q228.62 7.18 228.91 6.74L228.91 6.74L228.91 6.74Q229.19 6.30 229.19 5.94L229.19 5.94L229.19 5.94Q229.19 5.32 228.42 5.32L228.42 5.32L228.42 5.32Q228.10 5.32 227.76 5.45L227.76 5.45L227.76 5.45Q227.42 5.59 227.07 5.82L227.07 5.82L227.07 5.82Q226.72 6.06 226.39 6.40L226.39 6.40L226.39 6.40Q226.06 6.73 225.78 7.14L225.78 7.14L225.78 7.14Q223.83 9.94 223.83 12.87L223.83 12.87L223.83 12.87Q223.83 13.90 224.15 14.53L224.15 14.53L224.15 14.53Q224.48 15.16 225.01 15.27L225.01 15.27L225.01 15.27Q225.61 15.13 226.53 14.50L226.53 14.50L226.53 14.50Q227.46 13.87 228.55 12.87L228.55 12.87L228.55 12.87Q228.69 13.01 228.72 13.16L228.72 13.16L228.72 13.16Q228.31 13.69 227.88 14.18L227.88 14.18L227.88 14.18Q227.44 14.67 227.02 15.08L227.02 15.08L227.02 15.08Q226.59 15.48 226.18 15.79L226.18 15.79L226.18 15.79Q225.76 16.10 225.41 16.27L225.41 16.27L225.41 16.27Q223.68 16.24 222.78 15.27L222.78 15.27L222.78 15.27Q221.89 14.31 221.89 12.43ZM242.48 9.21L242.48 9.21L242.48 9.21Q242.94 9.21 243.20 9.46L243.20 9.46L243.20 9.46Q243.46 9.72 243.46 10.16L243.46 10.16L243.46 10.16Q243.46 10.28 243.44 10.39L243.44 10.39L243.44 10.39Q243.42 10.51 243.39 10.60L243.39 10.60L243.39 10.60Q243.21 10.57 242.98 10.55L242.98 10.55L242.98 10.55Q242.76 10.53 242.45 10.53L242.45 10.53L242.45 10.53Q241.85 10.53 241.23 10.63L241.23 10.63L241.23 10.63Q240.62 10.74 240.06 10.81L240.06 10.81L240.06 10.81Q239.74 11.55 239.47 12.24L239.47 12.24L239.47 12.24Q239.20 12.94 239.02 13.51L239.02 13.51L239.02 13.51Q238.83 14.08 238.72 14.50L238.72 14.50L238.72 14.50Q238.62 14.92 238.60 15.13L238.60 15.13L238.60 15.13Q239.74 14.90 240.89 14.73L240.89 14.73L240.89 14.73Q242.05 14.56 243.32 14.48L243.32 14.48L243.32 14.48Q243.47 14.71 243.58 14.99L243.58 14.99L243.58 14.99Q243.68 15.27 243.68 15.60L243.68 15.60L243.68 15.60Q243.68 15.68 243.68 15.78L243.68 15.78L243.68 15.78Q243.68 15.88 243.66 15.97L243.66 15.97L243.66 15.97Q243.26 15.96 242.83 15.95L242.83 15.95L242.83 15.95Q242.40 15.95 241.70 15.95L241.70 15.95L241.70 15.95Q241.23 15.95 240.82 15.97L240.82 15.97L240.82 15.97Q240.41 15.99 239.99 16.03L239.99 16.03L239.99 16.03Q239.57 16.07 239.10 16.14L239.10 16.14L239.10 16.14Q238.63 16.21 238.04 16.31L238.04 16.31L238.04 16.31Q237.40 16.06 236.80 15.08L236.80 15.08L236.80 15.08Q237.03 14.57 237.46 13.54L237.46 13.54L237.46 13.54Q237.89 12.52 238.55 10.79L238.55 10.79L238.55 10.79Q237.92 10.60 237.72 10.09L237.72 10.09L237.72 10.09Q237.79 10.02 238.13 9.92L238.13 9.92L238.13 9.92Q238.46 9.81 238.95 9.70L238.95 9.70L238.95 9.70Q239.16 9.16 239.31 8.75L239.31 8.75L239.31 8.75Q239.46 8.34 239.57 7.99L239.57 7.99L239.57 7.99Q239.68 7.63 239.77 7.29L239.77 7.29L239.77 7.29Q239.86 6.94 239.95 6.54L239.95 6.54L239.95 6.54Q239.46 6.51 239.18 6.27L239.18 6.27L239.18 6.27Q238.90 6.02 238.90 5.63L238.90 5.63L238.90 5.63Q238.90 5.52 238.93 5.36L238.93 5.36L238.93 5.36Q238.97 5.21 239.01 5.10L239.01 5.10L239.01 5.10Q239.29 5.14 239.55 5.15L239.55 5.15L239.55 5.15Q239.81 5.17 240.23 5.17L240.23 5.17L240.23 5.17Q241.11 5.17 241.88 5.12L241.88 5.12L241.88 5.12Q242.65 5.07 243.27 5.01L243.27 5.01L243.27 5.01Q243.89 4.96 244.34 4.91L244.34 4.91L244.34 4.91Q244.79 4.86 245.03 4.86L245.03 4.86L245.03 4.86Q245.35 4.86 245.60 5.19L245.60 5.19L245.60 5.19Q245.85 5.53 245.98 6.15L245.98 6.15L245.98 6.15Q245.55 6.10 245.27 6.09L245.27 6.09L245.27 6.09Q245.00 6.08 244.79 6.08L244.79 6.08L244.79 6.08Q244.02 6.08 243.38 6.15L243.38 6.15L243.38 6.15Q242.75 6.23 242.16 6.31L242.16 6.31L242.16 6.31Q242.07 6.44 241.97 6.64L241.97 6.64L241.97 6.64Q241.86 6.83 241.70 7.18L241.70 7.18L241.70 7.18Q241.53 7.53 241.28 8.06L241.28 8.06L241.28 8.06Q241.04 8.60 240.69 9.39L240.69 9.39L240.69 9.39Q241.22 9.31 241.69 9.26L241.69 9.26L241.69 9.26Q242.16 9.21 242.48 9.21ZM262.98 14.38L262.98 14.38L262.98 14.38Q262.98 13.87 263.14 13.07L263.14 13.07L263.14 13.07Q263.30 12.26 263.56 11.33L263.56 11.33L263.56 11.33Q263.82 10.40 264.15 9.43L264.15 9.43L264.15 9.43Q264.49 8.46 264.84 7.60L264.84 7.60L264.84 7.60Q265.19 6.75 265.52 6.10L265.52 6.10L265.52 6.10Q265.86 5.46 266.13 5.18L266.13 5.18L266.13 5.18Q266.27 5.19 266.50 5.29L266.50 5.29L266.50 5.29Q266.73 5.38 266.97 5.50L266.97 5.50L266.97 5.50Q267.20 5.63 267.40 5.78L267.40 5.78L267.40 5.78Q267.60 5.92 267.65 6.05L267.65 6.05L267.65 6.05Q267.25 6.41 266.85 7.15L266.85 7.15L266.85 7.15Q266.45 7.88 266.08 8.82L266.08 8.82L266.08 8.82Q265.71 9.76 265.38 10.80L265.38 10.80L265.38 10.80Q265.06 11.84 264.82 12.82L264.82 12.82L264.82 12.82Q264.59 13.80 264.45 14.64L264.45 14.64L264.45 14.64Q264.32 15.48 264.32 16.00L264.32 16.00L264.32 16.00Q264.32 16.24 264.36 16.30L264.36 16.30L264.36 16.30Q264.05 16.28 263.91 16.19L263.91 16.19L263.91 16.19Q263.77 16.10 263.70 16.00L263.70 16.00L263.70 16.00Q263.62 15.89 263.56 15.79L263.56 15.79L263.56 15.79Q263.49 15.68 263.37 15.62L263.37 15.62L263.37 15.62Q263.27 15.58 263.20 15.43L263.20 15.43L263.20 15.43Q263.13 15.27 263.08 15.09L263.08 15.09L263.08 15.09Q263.03 14.90 263.00 14.70L263.00 14.70L263.00 14.70Q262.98 14.50 262.98 14.38ZM275.21 16.24L275.21 16.24L275.21 16.24Q274.41 16.00 274.13 15.79L274.13 15.79L274.13 15.79Q273.85 15.57 273.85 15.19L273.85 15.19L273.85 15.19Q273.85 14.77 274.05 14.01L274.05 14.01L274.05 14.01Q274.25 13.24 274.56 12.31L274.56 12.31L274.56 12.31Q274.88 11.37 275.28 10.35L275.28 10.35L275.28 10.35Q275.69 9.32 276.11 8.39L276.11 8.39L276.11 8.39Q276.53 7.45 276.93 6.67L276.93 6.67L276.93 6.67Q277.33 5.89 277.63 5.46L277.63 5.46L277.54 4.87L277.54 4.87Q277.73 4.87 278.08 4.97L278.08 4.97L278.08 4.97Q278.43 5.07 278.79 5.21L278.79 5.21L278.79 5.21Q279.15 5.35 279.42 5.49L279.42 5.49L279.42 5.49Q279.69 5.64 279.72 5.74L279.72 5.74L279.72 5.74Q279.65 6.08 279.61 6.76L279.61 6.76L279.61 6.76Q279.57 7.43 279.57 8.20L279.57 8.20L279.57 8.20Q279.57 9.73 279.69 11.19L279.69 11.19L279.69 11.19Q279.80 12.66 280.24 14.17L280.24 14.17L280.24 14.17Q280.46 13.05 280.72 11.94L280.72 11.94L280.72 11.94Q280.98 10.82 281.26 9.81L281.26 9.81L281.26 9.81Q281.54 8.79 281.82 7.92L281.82 7.92L281.82 7.92Q282.10 7.06 282.36 6.40L282.36 6.40L282.36 6.40Q282.62 5.75 282.84 5.38L282.84 5.38L282.84 5.38Q283.07 5.01 283.25 4.98L283.25 4.98L283.25 4.98Q283.40 5.01 283.58 5.10L283.58 5.10L283.58 5.10Q283.77 5.19 283.93 5.32L283.93 5.32L283.93 5.32Q284.10 5.45 284.24 5.60L284.24 5.60L284.24 5.60Q284.38 5.75 284.47 5.91L284.47 5.91L284.47 5.91Q284.02 6.09 283.58 6.76L283.58 6.76L283.58 6.76Q283.14 7.43 282.74 8.39L282.74 8.39L282.74 8.39Q282.34 9.35 282.00 10.47L282.00 10.47L282.00 10.47Q281.65 11.59 281.39 12.68L281.39 12.68L281.39 12.68Q281.13 13.76 280.99 14.69L280.99 14.69L280.99 14.69Q280.84 15.61 280.83 16.17L280.83 16.17L280.83 16.17Q280.83 16.20 280.84 16.21L280.84 16.21L280.84 16.21Q280.80 16.23 280.75 16.23L280.75 16.23L280.75 16.23Q280.70 16.23 280.66 16.23L280.66 16.23L280.66 16.23Q280.01 16.23 279.52 16.07L279.52 16.07L279.52 16.07Q279.02 15.90 278.87 15.61L278.87 15.61L278.87 15.61Q278.57 14.43 278.38 13.34L278.38 13.34L278.38 13.34Q278.18 12.25 278.05 11.16L278.05 11.16L278.05 11.16Q277.91 10.07 277.84 8.95L277.84 8.95L277.84 8.95Q277.76 7.84 277.72 6.62L277.72 6.62L277.72 6.62Q277.45 7.04 277.16 7.72L277.16 7.72L277.16 7.72Q276.86 8.40 276.58 9.21L276.58 9.21L276.58 9.21Q276.30 10.02 276.05 10.92L276.05 10.92L276.05 10.92Q275.79 11.82 275.59 12.67L275.59 12.67L275.59 12.67Q275.39 13.52 275.28 14.29L275.28 14.29L275.28 14.29Q275.17 15.05 275.17 15.61L275.17 15.61L275.17 15.61Q275.17 15.90 275.18 16.03L275.18 16.03L275.18 16.03Q275.18 16.16 275.21 16.24ZM306.03 10.35L306.03 10.35L306.03 10.35Q307.08 9.20 307.91 7.91L307.91 7.91L307.91 7.91Q308.74 6.62 309.46 5.01L309.46 5.01L309.46 5.01Q309.82 5.05 310.16 5.21L310.16 5.21L310.16 5.21Q310.49 5.36 310.69 5.56L310.69 5.56L310.69 5.56Q309.92 6.48 309.30 7.24L309.30 7.24L309.30 7.24Q308.67 7.99 308.15 8.66L308.15 8.66L308.15 8.66Q307.64 9.32 307.20 9.93L307.20 9.93L307.20 9.93Q306.75 10.54 306.33 11.16L306.33 11.16L306.33 11.16Q306.12 11.87 305.94 12.60L305.94 12.60L305.94 12.60Q305.76 13.33 305.62 13.99L305.62 13.99L305.62 13.99Q305.48 14.66 305.40 15.22L305.40 15.22L305.40 15.22Q305.33 15.79 305.33 16.20L305.33 16.20L305.33 16.20Q305.17 16.20 304.84 16.14L304.84 16.14L304.84 16.14Q304.50 16.07 304.15 15.99L304.15 15.99L304.15 15.99Q303.80 15.90 303.51 15.82L303.51 15.82L303.51 15.82Q303.23 15.74 303.17 15.68L303.17 15.68L303.17 15.68Q303.39 15.30 303.61 14.75L303.61 14.75L303.61 14.75Q303.83 14.20 304.04 13.59L304.04 13.59L304.04 13.59Q304.25 12.98 304.44 12.36L304.44 12.36L304.44 12.36Q304.64 11.73 304.81 11.20L304.81 11.20L304.81 11.20Q304.46 10.11 304.13 9.15L304.13 9.15L304.13 9.15Q303.80 8.19 303.49 7.41L303.49 7.41L303.49 7.41Q303.18 6.64 302.90 6.08L302.90 6.08L302.90 6.08Q302.62 5.52 302.37 5.22L302.37 5.22L302.37 5.22Q302.51 5.17 302.80 5.11L302.80 5.11L302.80 5.11Q303.09 5.05 303.43 5.00L303.43 5.00L303.43 5.00Q303.77 4.94 304.13 4.91L304.13 4.91L304.13 4.91Q304.49 4.87 304.77 4.86L304.77 4.86L304.77 4.86Q304.77 5.21 304.83 5.71L304.83 5.71L304.83 5.71Q304.89 6.22 305.00 6.79L305.00 6.79L305.00 6.79Q305.10 7.36 305.24 7.95L305.24 7.95L305.24 7.95Q305.38 8.54 305.52 9.03L305.52 9.03L305.52 9.03Q305.66 9.52 305.80 9.88L305.80 9.88L305.80 9.88Q305.93 10.23 306.03 10.35ZM322.67 4.98L322.67 4.98L322.67 4.98Q322.94 5.10 323.22 5.27L323.22 5.27L323.22 5.27Q323.50 5.45 323.74 5.63L323.74 5.63L323.74 5.63Q323.97 5.81 324.14 5.98L324.14 5.98L324.14 5.98Q324.30 6.16 324.31 6.27L324.31 6.27L324.31 6.27Q324.07 6.22 323.83 6.20L323.83 6.20L323.83 6.20Q323.60 6.17 323.40 6.17L323.40 6.17L323.40 6.17Q322.77 6.17 322.15 6.48L322.15 6.48L322.15 6.48Q321.52 6.79 320.96 7.32L320.96 7.32L320.96 7.32Q320.40 7.85 319.93 8.57L319.93 8.57L319.93 8.57Q319.45 9.28 319.11 10.09L319.11 10.09L319.11 10.09Q318.77 10.91 318.57 11.77L318.57 11.77L318.57 11.77Q318.37 12.64 318.37 13.48L318.37 13.48L318.37 13.48Q318.37 14.57 318.74 15.11L318.74 15.11L318.74 15.11Q319.10 15.64 319.80 15.64L319.80 15.64L319.80 15.64Q320.14 15.64 320.53 15.51L320.53 15.51L320.53 15.51Q320.92 15.37 321.33 15.13L321.33 15.13L321.33 15.13Q321.73 14.90 322.13 14.56L322.13 14.56L322.13 14.56Q322.52 14.22 322.85 13.82L322.85 13.82L322.85 13.82Q323.34 13.23 323.74 12.48L323.74 12.48L323.74 12.48Q324.13 11.73 324.40 10.89L324.40 10.89L324.40 10.89Q324.67 10.05 324.82 9.16L324.82 9.16L324.82 9.16Q324.97 8.27 324.97 7.42L324.97 7.42L324.97 7.42Q324.97 7.08 324.95 6.85L324.95 6.85L324.95 6.85Q324.94 6.62 324.92 6.46L324.92 6.46L324.92 6.46Q324.90 6.30 324.88 6.20L324.88 6.20L324.88 6.20Q324.87 6.10 324.86 6.03L324.86 6.03L324.86 6.03Q325.02 6.12 325.23 6.24L325.23 6.24L325.23 6.24Q325.43 6.36 325.61 6.59L325.61 6.59L325.61 6.59Q325.78 6.82 325.90 7.20L325.90 7.20L325.90 7.20Q326.02 7.57 326.02 8.18L326.02 8.18L326.02 8.18Q326.02 9.16 325.79 10.10L325.79 10.10L325.79 10.10Q325.56 11.05 325.14 11.90L325.14 11.90L325.14 11.90Q324.73 12.75 324.17 13.50L324.17 13.50L324.17 13.50Q323.61 14.24 322.97 14.80L322.97 14.80L322.97 14.80Q322.13 15.54 321.17 15.95L321.17 15.95L321.17 15.95Q320.22 16.35 319.34 16.35L319.34 16.35L319.34 16.35Q318.05 16.35 317.37 15.53L317.37 15.53L317.37 15.53Q316.69 14.71 316.69 13.12L316.69 13.12L316.69 13.12Q316.69 12.26 316.88 11.31L316.88 11.31L316.88 11.31Q317.07 10.36 317.42 9.44L317.42 9.44L317.42 9.44Q317.76 8.51 318.23 7.68L318.23 7.68L318.23 7.68Q318.71 6.85 319.28 6.21L319.28 6.21L319.28 6.21Q319.84 5.57 320.50 5.19L320.50 5.19L320.50 5.19Q321.15 4.82 321.83 4.82L321.83 4.82L321.83 4.82Q322.06 4.82 322.25 4.85L322.25 4.85L322.25 4.85Q322.45 4.89 322.67 4.98ZM338.72 5.75L338.72 5.75L338.72 5.75Q338.10 6.58 337.60 7.57L337.60 7.57L337.60 7.57Q337.09 8.57 336.74 9.61L336.74 9.61L336.74 9.61Q336.38 10.65 336.19 11.67L336.19 11.67L336.19 11.67Q336.00 12.68 336.00 13.57L336.00 13.57L336.00 13.57Q336.00 14.66 336.32 15.15L336.32 15.15L336.32 15.15Q336.64 15.64 337.43 15.64L337.43 15.64L337.43 15.64Q338.34 15.64 339.02 15.00L339.02 15.00L339.02 15.00Q339.71 14.36 340.31 13.24L340.31 13.24L340.31 13.24Q340.70 12.52 340.98 11.65L340.98 11.65L340.98 11.65Q341.26 10.78 341.44 9.86L341.44 9.86L341.44 9.86Q341.61 8.95 341.70 8.02L341.70 8.02L341.70 8.02Q341.78 7.08 341.78 6.23L341.78 6.23L341.78 6.23Q341.78 5.68 341.77 5.43L341.77 5.43L341.77 5.43Q341.75 5.18 341.73 5.03L341.73 5.03L341.73 5.03Q341.77 5.03 341.94 5.05L341.94 5.05L341.94 5.05Q342.10 5.08 342.32 5.12L342.32 5.12L342.32 5.12Q342.54 5.17 342.76 5.24L342.76 5.24L342.76 5.24Q342.97 5.31 343.13 5.39L343.13 5.39L343.13 5.39Q343.06 6.45 342.87 7.59L342.87 7.59L342.87 7.59Q342.68 8.72 342.37 9.83L342.37 9.83L342.37 9.83Q342.06 10.93 341.66 11.96L341.66 11.96L341.66 11.96Q341.25 12.98 340.75 13.79L340.75 13.79L340.75 13.79Q340.00 14.99 339.08 15.67L339.08 15.67L339.08 15.67Q338.16 16.35 336.90 16.35L336.90 16.35L336.90 16.35Q335.61 16.35 334.89 15.60L334.89 15.60L334.89 15.60Q334.18 14.85 334.18 13.33L334.18 13.33L334.18 13.33Q334.18 12.45 334.38 11.33L334.38 11.33L334.38 11.33Q334.57 10.22 334.90 9.07L334.90 9.07L334.90 9.07Q335.23 7.91 335.66 6.81L335.66 6.81L335.66 6.81Q336.10 5.71 336.57 4.84L336.57 4.84L336.57 4.84Q336.81 4.86 337.13 4.94L337.13 4.94L337.13 4.94Q337.46 5.03 337.76 5.16L337.76 5.16L337.76 5.16Q338.07 5.29 338.33 5.45L338.33 5.45L338.33 5.45Q338.59 5.61 338.72 5.75ZM359.62 7.46L359.62 7.46L359.62 7.46Q359.62 8.13 359.32 8.73L359.32 8.73L359.32 8.73Q359.02 9.32 358.48 9.79L358.48 9.79L358.48 9.79Q357.95 10.26 357.24 10.58L357.24 10.58L357.24 10.58Q356.52 10.91 355.68 11.02L355.68 11.02L355.68 11.02Q355.89 11.65 356.20 12.31L356.20 12.31L356.20 12.31Q356.50 12.98 356.85 13.59L356.85 13.59L356.85 13.59Q357.20 14.21 357.57 14.73L357.57 14.73L357.57 14.73Q357.95 15.25 358.32 15.58L358.32 15.58L358.32 15.58Q358.25 15.72 358.11 15.86L358.11 15.86L358.11 15.86Q357.98 16.00 357.81 16.12L357.81 16.12L357.81 16.12Q357.63 16.24 357.44 16.32L357.44 16.32L357.44 16.32Q357.25 16.39 357.08 16.39L357.08 16.39L357.08 16.39Q356.78 16.39 356.50 16.10L356.50 16.10L356.50 16.10Q356.22 15.81 355.93 15.17L355.93 15.17L355.93 15.17Q355.64 14.53 355.33 13.52L355.33 13.52L355.33 13.52Q355.01 12.50 354.63 11.07L354.63 11.07L354.63 11.07Q354.48 11.07 354.33 11.07L354.33 11.07L354.33 11.07Q354.17 11.07 354.09 11.05L354.09 11.05L354.09 11.05Q353.99 10.99 353.88 10.85L353.88 10.85L353.88 10.85Q353.50 11.66 353.21 12.38L353.21 12.38L353.21 12.38Q352.91 13.09 352.68 13.76L352.68 13.76L352.68 13.76Q352.45 14.42 352.28 15.04L352.28 15.04L352.28 15.04Q352.10 15.67 351.97 16.31L351.97 16.31L351.97 16.31Q351.50 16.20 351.15 15.90L351.15 15.90L351.15 15.90Q350.80 15.61 350.49 15.08L350.49 15.08L350.49 15.08Q350.55 14.95 350.61 14.83L350.61 14.83L350.61 14.83Q350.67 14.71 350.77 14.50L350.77 14.50L350.77 14.50Q350.87 14.28 351.02 13.94L351.02 13.94L351.02 13.94Q351.16 13.61 351.41 13.05L351.41 13.05L351.41 13.05Q351.65 12.49 352.00 11.68L352.00 11.68L352.00 11.68Q352.34 10.86 352.83 9.70L352.83 9.70L352.83 9.70Q353.05 9.18 353.21 8.79L353.21 8.79L353.21 8.79Q353.37 8.40 353.50 8.04L353.50 8.04L353.50 8.04Q353.63 7.69 353.73 7.33L353.73 7.33L353.73 7.33Q353.84 6.97 353.95 6.51L353.95 6.51L353.95 6.51Q353.30 6.73 352.75 7.01L352.75 7.01L352.75 7.01Q352.20 7.28 351.83 7.59L351.83 7.59L351.83 7.59Q351.71 7.50 351.58 7.34L351.58 7.34L351.58 7.34Q351.44 7.17 351.33 6.96L351.33 6.96L351.33 6.96Q351.22 6.76 351.13 6.55L351.13 6.55L351.13 6.55Q351.05 6.34 351.04 6.17L351.04 6.17L351.04 6.17Q351.46 5.89 352.07 5.66L352.07 5.66L352.07 5.66Q352.67 5.42 353.36 5.24L353.36 5.24L353.36 5.24Q354.05 5.07 354.76 4.97L354.76 4.97L354.76 4.97Q355.47 4.87 356.09 4.87L356.09 4.87L356.09 4.87Q357.77 4.87 358.69 5.56L358.69 5.56L358.69 5.56Q359.62 6.26 359.62 7.46ZM356.03 6.02L356.20 6.29L356.20 6.29Q356.10 6.41 355.89 6.79L355.89 6.79L355.89 6.79Q355.68 7.17 355.41 7.69L355.41 7.69L355.41 7.69Q355.14 8.22 354.84 8.83L354.84 8.83L354.84 8.83Q354.54 9.45 354.26 10.05L354.26 10.05L354.26 10.05Q355.31 10.05 356.19 9.86L356.19 9.86L356.19 9.86Q357.07 9.66 357.71 9.30L357.71 9.30L357.71 9.30Q358.36 8.95 358.72 8.46L358.72 8.46L358.72 8.46Q359.07 7.98 359.07 7.39L359.07 7.39L359.07 7.39Q359.07 6.69 358.57 6.32L358.57 6.32L358.57 6.32Q358.06 5.95 357.01 5.95L357.01 5.95L357.01 5.95Q356.78 5.95 356.54 5.97L356.54 5.97L356.54 5.97Q356.30 5.99 356.03 6.02L356.03 6.02ZM386.64 7.63L386.64 7.63L386.64 7.63Q386.64 8.40 386.25 9.10L386.25 9.10L386.25 9.10Q385.87 9.80 385.22 10.32L385.22 10.32L385.22 10.32Q384.57 10.85 383.69 11.16L383.69 11.16L383.69 11.16Q382.82 11.47 381.84 11.47L381.84 11.47L381.84 11.47Q381.49 11.47 381.28 11.38L381.28 11.38L381.28 11.38Q381.08 11.28 380.83 11.02L380.83 11.02L380.83 11.02Q380.13 12.54 379.69 13.82L379.69 13.82L379.69 13.82Q379.25 15.11 378.99 16.31L378.99 16.31L378.99 16.31Q378.46 16.18 378.13 15.87L378.13 15.87L378.13 15.87Q377.79 15.55 377.51 15.08L377.51 15.08L377.51 15.08Q377.65 14.81 377.85 14.38L377.85 14.38L377.85 14.38Q378.04 13.94 378.32 13.31L378.32 13.31L378.32 13.31Q378.60 12.67 378.97 11.78L378.97 11.78L378.97 11.78Q379.34 10.89 379.85 9.70L379.85 9.70L379.85 9.70Q380.07 9.16 380.24 8.75L380.24 8.75L380.24 8.75Q380.41 8.34 380.53 7.99L380.53 7.99L380.53 7.99Q380.66 7.63 380.77 7.28L380.77 7.28L380.77 7.28Q380.87 6.93 380.98 6.51L380.98 6.51L380.98 6.51Q380.32 6.72 379.77 7L379.77 7L379.77 7Q379.22 7.28 378.85 7.59L378.85 7.59L378.85 7.59Q378.73 7.50 378.60 7.34L378.60 7.34L378.60 7.34Q378.46 7.17 378.35 6.96L378.35 6.96L378.35 6.96Q378.24 6.76 378.15 6.55L378.15 6.55L378.15 6.55Q378.07 6.34 378.06 6.17L378.06 6.17L378.06 6.17Q378.46 5.89 379.06 5.66L379.06 5.66L379.06 5.66Q379.67 5.42 380.35 5.24L380.35 5.24L380.35 5.24Q381.04 5.07 381.77 4.97L381.77 4.97L381.77 4.97Q382.51 4.87 383.18 4.87L383.18 4.87L383.18 4.87Q383.98 4.87 384.62 5.07L384.62 5.07L384.62 5.07Q385.27 5.28 385.71 5.64L385.71 5.64L385.71 5.64Q386.16 6.01 386.40 6.51L386.40 6.51L386.40 6.51Q386.64 7.01 386.64 7.63ZM384.15 5.95L384.15 5.95L384.15 5.95Q383.61 5.95 383.05 6.03L383.05 6.03L383.22 6.29L383.22 6.29Q383.08 6.47 382.87 6.83L382.87 6.83L382.87 6.83Q382.66 7.20 382.41 7.71L382.41 7.71L382.41 7.71Q382.16 8.22 381.86 8.85L381.86 8.85L381.86 8.85Q381.56 9.48 381.22 10.18L381.22 10.18L381.22 10.18Q382.31 10.18 383.21 9.97L383.21 9.97L383.21 9.97Q384.10 9.77 384.74 9.41L384.74 9.41L384.74 9.41Q385.38 9.06 385.74 8.58L385.74 8.58L385.74 8.58Q386.09 8.11 386.09 7.56L386.09 7.56L386.09 7.56Q386.09 6.83 385.60 6.39L385.60 6.39L385.60 6.39Q385.11 5.95 384.15 5.95ZM402.61 7.46L402.61 7.46L402.61 7.46Q402.61 8.13 402.31 8.73L402.31 8.73L402.31 8.73Q402.01 9.32 401.48 9.79L401.48 9.79L401.48 9.79Q400.95 10.26 400.23 10.58L400.23 10.58L400.23 10.58Q399.52 10.91 398.68 11.02L398.68 11.02L398.68 11.02Q398.89 11.65 399.19 12.31L399.19 12.31L399.19 12.31Q399.49 12.98 399.84 13.59L399.84 13.59L399.84 13.59Q400.19 14.21 400.57 14.73L400.57 14.73L400.57 14.73Q400.95 15.25 401.31 15.58L401.31 15.58L401.31 15.58Q401.24 15.72 401.11 15.86L401.11 15.86L401.11 15.86Q400.97 16.00 400.80 16.12L400.80 16.12L400.80 16.12Q400.62 16.24 400.44 16.32L400.44 16.32L400.44 16.32Q400.25 16.39 400.08 16.39L400.08 16.39L400.08 16.39Q399.77 16.39 399.49 16.10L399.49 16.10L399.49 16.10Q399.21 15.81 398.92 15.17L398.92 15.17L398.92 15.17Q398.64 14.53 398.32 13.52L398.32 13.52L398.32 13.52Q398.01 12.50 397.63 11.07L397.63 11.07L397.63 11.07Q397.47 11.07 397.32 11.07L397.32 11.07L397.32 11.07Q397.17 11.07 397.08 11.05L397.08 11.05L397.08 11.05Q396.98 10.99 396.87 10.85L396.87 10.85L396.87 10.85Q396.49 11.66 396.20 12.38L396.20 12.38L396.20 12.38Q395.91 13.09 395.68 13.76L395.68 13.76L395.68 13.76Q395.44 14.42 395.27 15.04L395.27 15.04L395.27 15.04Q395.09 15.67 394.97 16.31L394.97 16.31L394.97 16.31Q394.49 16.20 394.14 15.90L394.14 15.90L394.14 15.90Q393.79 15.61 393.48 15.08L393.48 15.08L393.48 15.08Q393.54 14.95 393.60 14.83L393.60 14.83L393.60 14.83Q393.67 14.71 393.76 14.50L393.76 14.50L393.76 14.50Q393.86 14.28 394.01 13.94L394.01 13.94L394.01 13.94Q394.16 13.61 394.40 13.05L394.40 13.05L394.40 13.05Q394.65 12.49 394.99 11.68L394.99 11.68L394.99 11.68Q395.33 10.86 395.82 9.70L395.82 9.70L395.82 9.70Q396.05 9.18 396.21 8.79L396.21 8.79L396.21 8.79Q396.37 8.40 396.49 8.04L396.49 8.04L396.49 8.04Q396.62 7.69 396.73 7.33L396.73 7.33L396.73 7.33Q396.83 6.97 396.94 6.51L396.94 6.51L396.94 6.51Q396.30 6.73 395.75 7.01L395.75 7.01L395.75 7.01Q395.19 7.28 394.83 7.59L394.83 7.59L394.83 7.59Q394.70 7.50 394.57 7.34L394.57 7.34L394.57 7.34Q394.44 7.17 394.32 6.96L394.32 6.96L394.32 6.96Q394.21 6.76 394.13 6.55L394.13 6.55L394.13 6.55Q394.04 6.34 394.03 6.17L394.03 6.17L394.03 6.17Q394.45 5.89 395.06 5.66L395.06 5.66L395.06 5.66Q395.67 5.42 396.35 5.24L396.35 5.24L396.35 5.24Q397.04 5.07 397.75 4.97L397.75 4.97L397.75 4.97Q398.47 4.87 399.08 4.87L399.08 4.87L399.08 4.87Q400.76 4.87 401.69 5.56L401.69 5.56L401.69 5.56Q402.61 6.26 402.61 7.46ZM399.03 6.02L399.20 6.29L399.20 6.29Q399.10 6.41 398.89 6.79L398.89 6.79L398.89 6.79Q398.68 7.17 398.41 7.69L398.41 7.69L398.41 7.69Q398.13 8.22 397.83 8.83L397.83 8.83L397.83 8.83Q397.53 9.45 397.25 10.05L397.25 10.05L397.25 10.05Q398.30 10.05 399.18 9.86L399.18 9.86L399.18 9.86Q400.06 9.66 400.71 9.30L400.71 9.30L400.71 9.30Q401.35 8.95 401.71 8.46L401.71 8.46L401.71 8.46Q402.07 7.98 402.07 7.39L402.07 7.39L402.07 7.39Q402.07 6.69 401.56 6.32L401.56 6.32L401.56 6.32Q401.06 5.95 400.01 5.95L400.01 5.95L400.01 5.95Q399.77 5.95 399.53 5.97L399.53 5.97L399.53 5.97Q399.29 5.99 399.03 6.02L399.03 6.02ZM416.11 4.98L416.11 4.98L416.11 4.98Q416.37 5.10 416.65 5.27L416.65 5.27L416.65 5.27Q416.93 5.45 417.17 5.63L417.17 5.63L417.17 5.63Q417.41 5.81 417.57 5.98L417.57 5.98L417.57 5.98Q417.73 6.16 417.75 6.27L417.75 6.27L417.75 6.27Q417.51 6.22 417.27 6.20L417.27 6.20L417.27 6.20Q417.03 6.17 416.84 6.17L416.84 6.17L416.84 6.17Q416.21 6.17 415.58 6.48L415.58 6.48L415.58 6.48Q414.96 6.79 414.40 7.32L414.40 7.32L414.40 7.32Q413.84 7.85 413.36 8.57L413.36 8.57L413.36 8.57Q412.89 9.28 412.55 10.09L412.55 10.09L412.55 10.09Q412.20 10.91 412.01 11.77L412.01 11.77L412.01 11.77Q411.81 12.64 411.81 13.48L411.81 13.48L411.81 13.48Q411.81 14.57 412.17 15.11L412.17 15.11L412.17 15.11Q412.54 15.64 413.24 15.64L413.24 15.64L413.24 15.64Q413.57 15.64 413.97 15.51L413.97 15.51L413.97 15.51Q414.36 15.37 414.76 15.13L414.76 15.13L414.76 15.13Q415.17 14.90 415.56 14.56L415.56 14.56L415.56 14.56Q415.95 14.22 416.29 13.82L416.29 13.82L416.29 13.82Q416.78 13.23 417.17 12.48L417.17 12.48L417.17 12.48Q417.56 11.73 417.84 10.89L417.84 10.89L417.84 10.89Q418.11 10.05 418.26 9.16L418.26 9.16L418.26 9.16Q418.40 8.27 418.40 7.42L418.40 7.42L418.40 7.42Q418.40 7.08 418.39 6.85L418.39 6.85L418.39 6.85Q418.38 6.62 418.36 6.46L418.36 6.46L418.36 6.46Q418.33 6.30 418.32 6.20L418.32 6.20L418.32 6.20Q418.31 6.10 418.29 6.03L418.29 6.03L418.29 6.03Q418.46 6.12 418.66 6.24L418.66 6.24L418.66 6.24Q418.87 6.36 419.04 6.59L419.04 6.59L419.04 6.59Q419.22 6.82 419.34 7.20L419.34 7.20L419.34 7.20Q419.45 7.57 419.45 8.18L419.45 8.18L419.45 8.18Q419.45 9.16 419.22 10.10L419.22 10.10L419.22 10.10Q418.99 11.05 418.58 11.90L418.58 11.90L418.58 11.90Q418.17 12.75 417.61 13.50L417.61 13.50L417.61 13.50Q417.05 14.24 416.40 14.80L416.40 14.80L416.40 14.80Q415.56 15.54 414.61 15.95L414.61 15.95L414.61 15.95Q413.66 16.35 412.78 16.35L412.78 16.35L412.78 16.35Q411.49 16.35 410.81 15.53L410.81 15.53L410.81 15.53Q410.13 14.71 410.13 13.12L410.13 13.12L410.13 13.12Q410.13 12.26 410.32 11.31L410.32 11.31L410.32 11.31Q410.51 10.36 410.85 9.44L410.85 9.44L410.85 9.44Q411.19 8.51 411.67 7.68L411.67 7.68L411.67 7.68Q412.15 6.85 412.71 6.21L412.71 6.21L412.71 6.21Q413.28 5.57 413.93 5.19L413.93 5.19L413.93 5.19Q414.58 4.82 415.27 4.82L415.27 4.82L415.27 4.82Q415.49 4.82 415.69 4.85L415.69 4.85L415.69 4.85Q415.88 4.89 416.11 4.98ZM432.03 4.83L432.03 4.83L432.03 4.83Q432.56 4.83 433.13 5.03L433.13 5.03L433.13 5.03Q433.71 5.22 434.14 5.53L434.14 5.53L434.14 5.53Q434 6.24 433.88 6.82L433.88 6.82L433.88 6.82Q433.76 7.39 433.66 7.86L433.66 7.86L433.66 7.86Q433.57 8.33 433.48 8.71L433.48 8.71L433.48 8.71Q433.38 9.10 433.30 9.44L433.30 9.44L433.30 9.44Q432.96 10.70 432.61 11.71L432.61 11.71L432.61 11.71Q432.25 12.73 431.85 13.54L431.85 13.54L431.85 13.54Q431.45 14.35 431.01 14.98L431.01 14.98L431.01 14.98Q430.57 15.61 430.07 16.09L430.07 16.09L430.07 16.09Q429.58 16.55 429.09 16.84L429.09 16.84L429.09 16.84Q428.60 17.14 428.18 17.22L428.18 17.22L428.18 17.22Q427.62 17.22 427.14 17.09L427.14 17.09L427.14 17.09Q426.66 16.97 426.32 16.75L426.32 16.75L426.32 16.75Q425.98 16.53 425.79 16.23L425.79 16.23L425.79 16.23Q425.60 15.93 425.60 15.57L425.60 15.57L425.60 15.57Q425.60 15.18 425.80 14.58L425.80 14.58L425.80 14.58Q425.99 13.99 426.40 13.17L426.40 13.17L426.40 13.17Q426.57 13.19 426.79 13.26L426.79 13.26L426.79 13.26Q427.01 13.33 427.24 13.43L427.24 13.43L427.24 13.43Q427.46 13.52 427.64 13.64L427.64 13.64L427.64 13.64Q427.83 13.76 427.91 13.87L427.91 13.87L427.91 13.87Q427.46 14.34 427.18 14.89L427.18 14.89L427.18 14.89Q426.90 15.44 426.90 15.85L426.90 15.85L426.90 15.85Q426.90 16.09 426.99 16.27L426.99 16.27L426.99 16.27Q427.08 16.46 427.31 16.62L427.31 16.62L427.31 16.62Q428.16 16.30 428.97 15.42L428.97 15.42L428.97 15.42Q429.79 14.55 430.42 13.24L430.42 13.24L430.42 13.24Q430.79 12.47 431.10 11.48L431.10 11.48L431.10 11.48Q431.41 10.49 431.63 9.48L431.63 9.48L431.63 9.48Q431.84 8.48 431.96 7.57L431.96 7.57L431.96 7.57Q432.08 6.65 432.08 6.02L432.08 6.02L432.08 6.02Q432.08 5.92 432.08 5.75L432.08 5.75L432.08 5.75Q432.07 5.57 432.06 5.38L432.06 5.38L432.06 5.38Q432.05 5.19 432.04 5.04L432.04 5.04L432.04 5.04Q432.03 4.89 432.03 4.83ZM446.73 9.21L446.73 9.21L446.73 9.21Q447.19 9.21 447.45 9.46L447.45 9.46L447.45 9.46Q447.71 9.72 447.71 10.16L447.71 10.16L447.71 10.16Q447.71 10.28 447.69 10.39L447.69 10.39L447.69 10.39Q447.66 10.51 447.64 10.60L447.64 10.60L447.64 10.60Q447.45 10.57 447.23 10.55L447.23 10.55L447.23 10.55Q447.01 10.53 446.70 10.53L446.70 10.53L446.70 10.53Q446.10 10.53 445.48 10.63L445.48 10.63L445.48 10.63Q444.86 10.74 444.30 10.81L444.30 10.81L444.30 10.81Q443.98 11.55 443.72 12.24L443.72 12.24L443.72 12.24Q443.45 12.94 443.26 13.51L443.26 13.51L443.26 13.51Q443.07 14.08 442.97 14.50L442.97 14.50L442.97 14.50Q442.86 14.92 442.85 15.13L442.85 15.13L442.85 15.13Q443.98 14.90 445.14 14.73L445.14 14.73L445.14 14.73Q446.29 14.56 447.57 14.48L447.57 14.48L447.57 14.48Q447.72 14.71 447.83 14.99L447.83 14.99L447.83 14.99Q447.93 15.27 447.93 15.60L447.93 15.60L447.93 15.60Q447.93 15.68 447.93 15.78L447.93 15.78L447.93 15.78Q447.93 15.88 447.90 15.97L447.90 15.97L447.90 15.97Q447.51 15.96 447.08 15.95L447.08 15.95L447.08 15.95Q446.64 15.95 445.94 15.95L445.94 15.95L445.94 15.95Q445.48 15.95 445.07 15.97L445.07 15.97L445.07 15.97Q444.65 15.99 444.23 16.03L444.23 16.03L444.23 16.03Q443.81 16.07 443.35 16.14L443.35 16.14L443.35 16.14Q442.88 16.21 442.29 16.31L442.29 16.31L442.29 16.31Q441.64 16.06 441.04 15.08L441.04 15.08L441.04 15.08Q441.28 14.57 441.71 13.54L441.71 13.54L441.71 13.54Q442.13 12.52 442.79 10.79L442.79 10.79L442.79 10.79Q442.16 10.60 441.97 10.09L441.97 10.09L441.97 10.09Q442.04 10.02 442.37 9.92L442.37 9.92L442.37 9.92Q442.71 9.81 443.20 9.70L443.20 9.70L443.20 9.70Q443.41 9.16 443.56 8.75L443.56 8.75L443.56 8.75Q443.70 8.34 443.81 7.99L443.81 7.99L443.81 7.99Q443.93 7.63 444.02 7.29L444.02 7.29L444.02 7.29Q444.11 6.94 444.19 6.54L444.19 6.54L444.19 6.54Q443.70 6.51 443.42 6.27L443.42 6.27L443.42 6.27Q443.14 6.02 443.14 5.63L443.14 5.63L443.14 5.63Q443.14 5.52 443.18 5.36L443.18 5.36L443.18 5.36Q443.21 5.21 443.25 5.10L443.25 5.10L443.25 5.10Q443.53 5.14 443.79 5.15L443.79 5.15L443.79 5.15Q444.05 5.17 444.47 5.17L444.47 5.17L444.47 5.17Q445.35 5.17 446.12 5.12L446.12 5.12L446.12 5.12Q446.89 5.07 447.52 5.01L447.52 5.01L447.52 5.01Q448.14 4.96 448.59 4.91L448.59 4.91L448.59 4.91Q449.04 4.86 449.27 4.86L449.27 4.86L449.27 4.86Q449.60 4.86 449.85 5.19L449.85 5.19L449.85 5.19Q450.10 5.53 450.23 6.15L450.23 6.15L450.23 6.15Q449.79 6.10 449.52 6.09L449.52 6.09L449.52 6.09Q449.25 6.08 449.04 6.08L449.04 6.08L449.04 6.08Q448.27 6.08 447.63 6.15L447.63 6.15L447.63 6.15Q446.99 6.23 446.40 6.31L446.40 6.31L446.40 6.31Q446.32 6.44 446.22 6.64L446.22 6.64L446.22 6.64Q446.11 6.83 445.94 7.18L445.94 7.18L445.94 7.18Q445.77 7.53 445.53 8.06L445.53 8.06L445.53 8.06Q445.28 8.60 444.93 9.39L444.93 9.39L444.93 9.39Q445.47 9.31 445.94 9.26L445.94 9.26L445.94 9.26Q446.40 9.21 446.73 9.21ZM456.90 12.43L456.90 12.43L456.90 12.43Q456.90 11.45 457.14 10.51L457.14 10.51L457.14 10.51Q457.37 9.56 457.79 8.71L457.79 8.71L457.79 8.71Q458.21 7.87 458.79 7.16L458.79 7.16L458.79 7.16Q459.37 6.45 460.06 5.94L460.06 5.94L460.06 5.94Q460.75 5.42 461.54 5.13L461.54 5.13L461.54 5.13Q462.32 4.84 463.15 4.84L463.15 4.84L463.15 4.84Q464.11 4.84 464.65 5.25L464.65 5.25L464.65 5.25Q465.19 5.66 465.19 6.38L465.19 6.38L465.19 6.38Q465.19 6.66 465.12 6.96L465.12 6.96L465.12 6.96Q465.04 7.25 464.89 7.54L464.89 7.54L464.89 7.54Q464.74 7.83 464.55 8.09L464.55 8.09L464.55 8.09Q464.35 8.36 464.11 8.55L464.11 8.55L464.11 8.55Q463.75 8.50 463.48 8.22L463.48 8.22L463.48 8.22Q463.22 7.95 463.15 7.59L463.15 7.59L463.15 7.59Q463.64 7.18 463.93 6.74L463.93 6.74L463.93 6.74Q464.21 6.30 464.21 5.94L464.21 5.94L464.21 5.94Q464.21 5.32 463.44 5.32L463.44 5.32L463.44 5.32Q463.12 5.32 462.78 5.45L462.78 5.45L462.78 5.45Q462.43 5.59 462.08 5.82L462.08 5.82L462.08 5.82Q461.73 6.06 461.41 6.40L461.41 6.40L461.41 6.40Q461.08 6.73 460.80 7.14L460.80 7.14L460.80 7.14Q458.85 9.94 458.85 12.87L458.85 12.87L458.85 12.87Q458.85 13.90 459.17 14.53L459.17 14.53L459.17 14.53Q459.49 15.16 460.03 15.27L460.03 15.27L460.03 15.27Q460.63 15.13 461.55 14.50L461.55 14.50L461.55 14.50Q462.48 13.87 463.57 12.87L463.57 12.87L463.57 12.87Q463.71 13.01 463.74 13.16L463.74 13.16L463.74 13.16Q463.33 13.69 462.90 14.18L462.90 14.18L462.90 14.18Q462.46 14.67 462.04 15.08L462.04 15.08L462.04 15.08Q461.61 15.48 461.20 15.79L461.20 15.79L461.20 15.79Q460.78 16.10 460.43 16.27L460.43 16.27L460.43 16.27Q458.70 16.24 457.80 15.27L457.80 15.27L457.80 15.27Q456.90 14.31 456.90 12.43ZM474.39 6.69L474.39 6.69L474.39 6.69Q473.83 6.69 473.53 6.38L473.53 6.38L473.53 6.38Q473.23 6.06 473.23 5.61L473.23 5.61L473.23 5.61Q473.23 5.50 473.26 5.35L473.26 5.35L473.26 5.35Q473.30 5.19 473.35 5.08L473.35 5.08L473.35 5.08Q473.54 5.17 473.89 5.20L473.89 5.20L473.89 5.20Q474.25 5.24 474.73 5.24L474.73 5.24L474.73 5.24Q475.44 5.24 476.34 5.17L476.34 5.17L476.34 5.17Q477.25 5.11 478.07 5.04L478.07 5.04L478.07 5.04Q478.90 4.97 479.53 4.91L479.53 4.91L479.53 4.91Q480.16 4.84 480.34 4.84L480.34 4.84L480.34 4.84Q480.86 4.84 481.09 5.23L481.09 5.23L481.09 5.23Q481.32 5.61 481.43 6.26L481.43 6.26L481.43 6.26Q481.07 6.23 480.71 6.21L480.71 6.21L480.71 6.21Q480.35 6.19 480.10 6.19L480.10 6.19L480.10 6.19Q479.65 6.19 479.20 6.22L479.20 6.22L479.20 6.22Q478.74 6.24 478.28 6.30L478.28 6.30L478.28 6.30Q478.09 6.71 477.85 7.26L477.85 7.26L477.85 7.26Q477.61 7.81 477.38 8.41L477.38 8.41L477.38 8.41Q477.15 9.02 476.94 9.61L476.94 9.61L476.94 9.61Q476.73 10.21 476.57 10.68L476.57 10.68L476.57 10.68Q476.27 11.61 476.04 12.39L476.04 12.39L476.04 12.39Q475.80 13.17 475.63 13.85L475.63 13.85L475.63 13.85Q475.45 14.53 475.33 15.15L475.33 15.15L475.33 15.15Q475.20 15.76 475.10 16.35L475.10 16.35L475.10 16.35Q474.17 16.21 473.54 15.18L473.54 15.18L473.54 15.18Q473.65 14.74 473.81 14.23L473.81 14.23L473.81 14.23Q473.97 13.72 474.19 13.07L474.19 13.07L474.19 13.07Q474.40 12.42 474.70 11.59L474.70 11.59L474.70 11.59Q474.99 10.77 475.37 9.72L475.37 9.72L475.37 9.72Q475.51 9.32 475.66 8.90L475.66 8.90L475.66 8.90Q475.82 8.47 475.97 8.05L475.97 8.05L475.97 8.05Q476.11 7.63 476.23 7.24L476.23 7.24L476.23 7.24Q476.35 6.85 476.43 6.52L476.43 6.52L476.43 6.52Q475.85 6.59 475.32 6.64L475.32 6.64L475.32 6.64Q474.80 6.69 474.39 6.69ZM506.72 7.63L506.72 7.63L506.72 7.63Q506.72 8.40 506.33 9.10L506.33 9.10L506.33 9.10Q505.95 9.80 505.30 10.32L505.30 10.32L505.30 10.32Q504.64 10.85 503.77 11.16L503.77 11.16L503.77 11.16Q502.89 11.47 501.91 11.47L501.91 11.47L501.91 11.47Q501.56 11.47 501.36 11.38L501.36 11.38L501.36 11.38Q501.16 11.28 500.91 11.02L500.91 11.02L500.91 11.02Q500.21 12.54 499.77 13.82L499.77 13.82L499.77 13.82Q499.32 15.11 499.07 16.31L499.07 16.31L499.07 16.31Q498.54 16.18 498.20 15.87L498.20 15.87L498.20 15.87Q497.87 15.55 497.59 15.08L497.59 15.08L497.59 15.08Q497.73 14.81 497.92 14.38L497.92 14.38L497.92 14.38Q498.12 13.94 498.40 13.31L498.40 13.31L498.40 13.31Q498.68 12.67 499.05 11.78L499.05 11.78L499.05 11.78Q499.42 10.89 499.93 9.70L499.93 9.70L499.93 9.70Q500.15 9.16 500.32 8.75L500.32 8.75L500.32 8.75Q500.49 8.34 500.61 7.99L500.61 7.99L500.61 7.99Q500.74 7.63 500.84 7.28L500.84 7.28L500.84 7.28Q500.95 6.93 501.06 6.51L501.06 6.51L501.06 6.51Q500.40 6.72 499.85 7L499.85 7L499.85 7Q499.30 7.28 498.93 7.59L498.93 7.59L498.93 7.59Q498.81 7.50 498.67 7.34L498.67 7.34L498.67 7.34Q498.54 7.17 498.43 6.96L498.43 6.96L498.43 6.96Q498.32 6.76 498.23 6.55L498.23 6.55L498.23 6.55Q498.15 6.34 498.13 6.17L498.13 6.17L498.13 6.17Q498.54 5.89 499.14 5.66L499.14 5.66L499.14 5.66Q499.74 5.42 500.43 5.24L500.43 5.24L500.43 5.24Q501.12 5.07 501.85 4.97L501.85 4.97L501.85 4.97Q502.59 4.87 503.26 4.87L503.26 4.87L503.26 4.87Q504.06 4.87 504.70 5.07L504.70 5.07L504.70 5.07Q505.34 5.28 505.79 5.64L505.79 5.64L505.79 5.64Q506.24 6.01 506.48 6.51L506.48 6.51L506.48 6.51Q506.72 7.01 506.72 7.63ZM504.22 5.95L504.22 5.95L504.22 5.95Q503.69 5.95 503.13 6.03L503.13 6.03L503.30 6.29L503.30 6.29Q503.16 6.47 502.95 6.83L502.95 6.83L502.95 6.83Q502.74 7.20 502.49 7.71L502.49 7.71L502.49 7.71Q502.24 8.22 501.94 8.85L501.94 8.85L501.94 8.85Q501.63 9.48 501.30 10.18L501.30 10.18L501.30 10.18Q502.39 10.18 503.29 9.97L503.29 9.97L503.29 9.97Q504.18 9.77 504.82 9.41L504.82 9.41L504.82 9.41Q505.46 9.06 505.81 8.58L505.81 8.58L505.81 8.58Q506.17 8.11 506.17 7.56L506.17 7.56L506.17 7.56Q506.17 6.83 505.68 6.39L505.68 6.39L505.68 6.39Q505.19 5.95 504.22 5.95ZM518.55 5.75L518.55 5.75L518.55 5.75Q517.93 6.58 517.43 7.57L517.43 7.57L517.43 7.57Q516.92 8.57 516.57 9.61L516.57 9.61L516.57 9.61Q516.21 10.65 516.02 11.67L516.02 11.67L516.02 11.67Q515.83 12.68 515.83 13.57L515.83 13.57L515.83 13.57Q515.83 14.66 516.15 15.15L516.15 15.15L516.15 15.15Q516.47 15.64 517.26 15.64L517.26 15.64L517.26 15.64Q518.17 15.64 518.85 15.00L518.85 15.00L518.85 15.00Q519.54 14.36 520.14 13.24L520.14 13.24L520.14 13.24Q520.53 12.52 520.81 11.65L520.81 11.65L520.81 11.65Q521.09 10.78 521.27 9.86L521.27 9.86L521.27 9.86Q521.44 8.95 521.53 8.02L521.53 8.02L521.53 8.02Q521.61 7.08 521.61 6.23L521.61 6.23L521.61 6.23Q521.61 5.68 521.60 5.43L521.60 5.43L521.60 5.43Q521.58 5.18 521.56 5.03L521.56 5.03L521.56 5.03Q521.60 5.03 521.77 5.05L521.77 5.05L521.77 5.05Q521.93 5.08 522.15 5.12L522.15 5.12L522.15 5.12Q522.37 5.17 522.59 5.24L522.59 5.24L522.59 5.24Q522.80 5.31 522.96 5.39L522.96 5.39L522.96 5.39Q522.89 6.45 522.70 7.59L522.70 7.59L522.70 7.59Q522.51 8.72 522.20 9.83L522.20 9.83L522.20 9.83Q521.89 10.93 521.49 11.96L521.49 11.96L521.49 11.96Q521.08 12.98 520.58 13.79L520.58 13.79L520.58 13.79Q519.83 14.99 518.91 15.67L518.91 15.67L518.91 15.67Q517.99 16.35 516.73 16.35L516.73 16.35L516.73 16.35Q515.44 16.35 514.72 15.60L514.72 15.60L514.72 15.60Q514.01 14.85 514.01 13.33L514.01 13.33L514.01 13.33Q514.01 12.45 514.21 11.33L514.21 11.33L514.21 11.33Q514.40 10.22 514.73 9.07L514.73 9.07L514.73 9.07Q515.06 7.91 515.49 6.81L515.49 6.81L515.49 6.81Q515.93 5.71 516.40 4.84L516.40 4.84L516.40 4.84Q516.64 4.86 516.96 4.94L516.96 4.94L516.96 4.94Q517.29 5.03 517.59 5.16L517.59 5.16L517.59 5.16Q517.90 5.29 518.16 5.45L518.16 5.45L518.16 5.45Q518.42 5.61 518.55 5.75ZM532.25 7.28L532.25 7.28L532.25 7.28Q532.20 7.08 532.16 6.82L532.16 6.82L532.16 6.82Q532.13 6.57 532.13 6.06L532.13 6.06L532.13 6.06Q532.13 5.74 532.14 5.41L532.14 5.41L532.14 5.41Q532.15 5.08 532.27 4.84L532.27 4.84L532.27 4.84Q532.95 4.97 533.73 5.07L533.73 5.07L533.73 5.07Q534.51 5.18 535.32 5.26L535.32 5.26L535.32 5.26Q536.13 5.35 536.94 5.40L536.94 5.40L536.94 5.40Q537.75 5.45 538.51 5.45L538.51 5.45L538.51 5.45Q539.55 5.45 540.18 5.36L540.18 5.36L540.18 5.36Q540.40 5.67 540.46 6.09L540.46 6.09L540.46 6.09Q540.51 6.51 540.51 6.87L540.51 6.87L540.51 6.87Q538.90 7.53 537.46 8.55L537.46 8.55L537.46 8.55Q536.02 9.56 534.84 10.67L534.84 10.67L534.84 10.67Q533.67 11.77 532.81 12.85L532.81 12.85L532.81 12.85Q531.96 13.93 531.54 14.73L531.54 14.73L531.54 14.73Q531.79 14.69 532.06 14.65L532.06 14.65L532.06 14.65Q532.32 14.62 532.63 14.59L532.63 14.59L532.63 14.59Q532.94 14.56 533.32 14.53L533.32 14.53L533.32 14.53Q533.69 14.50 534.18 14.48L534.18 14.48L534.18 14.48Q534.87 14.43 535.39 14.33L535.39 14.33L535.39 14.33Q535.91 14.22 536.27 14.11L536.27 14.11L536.27 14.11Q536.63 13.99 536.85 13.88L536.85 13.88L536.85 13.88Q537.07 13.78 537.17 13.71L537.17 13.71L537.17 13.71Q537.22 13.83 537.30 14.08L537.30 14.08L537.30 14.08Q537.38 14.34 537.44 14.64L537.44 14.64L537.44 14.64Q537.50 14.94 537.54 15.25L537.54 15.25L537.54 15.25Q537.59 15.57 537.59 15.83L537.59 15.83L537.59 15.83Q537.59 15.97 537.58 16.02L537.58 16.02L537.58 16.02Q537.57 16.07 537.56 16.13L537.56 16.13L537.56 16.13Q536.93 16.09 536.29 16.03L536.29 16.03L536.29 16.03Q535.65 15.97 535.02 15.97L535.02 15.97L535.02 15.97Q534.18 15.97 533.28 16.07L533.28 16.07L533.28 16.07Q532.38 16.16 531.54 16.34L531.54 16.34L531.54 16.34Q530.71 16.53 530.02 16.83L530.02 16.83L530.02 16.83Q529.33 17.12 528.91 17.53L528.91 17.53L528.91 17.53Q528.79 17.16 528.67 16.91L528.67 16.91L528.67 16.91Q528.56 16.65 528.56 16.28L528.56 16.28L528.56 16.28Q528.56 15.92 528.70 15.70L528.70 15.70L528.70 15.70Q528.85 15.48 529.10 15.34L529.10 15.34L529.10 15.34Q529.94 14.14 531.01 12.96L531.01 12.96L531.01 12.96Q532.08 11.77 533.30 10.67L533.30 10.67L533.30 10.67Q534.52 9.56 535.82 8.56L535.82 8.56L535.82 8.56Q537.12 7.56 538.43 6.73L538.43 6.73L538.43 6.73Q537.59 6.69 536.65 6.69L536.65 6.69L536.65 6.69Q535.99 6.69 535.35 6.72L535.35 6.72L535.35 6.72Q534.70 6.75 534.13 6.81L534.13 6.81L534.13 6.81Q533.55 6.87 533.07 6.99L533.07 6.99L533.07 6.99Q532.59 7.11 532.25 7.28ZM549.02 7.28L549.02 7.28L549.02 7.28Q548.97 7.08 548.93 6.82L548.93 6.82L548.93 6.82Q548.90 6.57 548.90 6.06L548.90 6.06L548.90 6.06Q548.90 5.74 548.91 5.41L548.91 5.41L548.91 5.41Q548.93 5.08 549.04 4.84L549.04 4.84L549.04 4.84Q549.72 4.97 550.50 5.07L550.50 5.07L550.50 5.07Q551.28 5.18 552.09 5.26L552.09 5.26L552.09 5.26Q552.90 5.35 553.71 5.40L553.71 5.40L553.71 5.40Q554.53 5.45 555.28 5.45L555.28 5.45L555.28 5.45Q556.32 5.45 556.95 5.36L556.95 5.36L556.95 5.36Q557.17 5.67 557.23 6.09L557.23 6.09L557.23 6.09Q557.28 6.51 557.28 6.87L557.28 6.87L557.28 6.87Q555.67 7.53 554.23 8.55L554.23 8.55L554.23 8.55Q552.79 9.56 551.61 10.67L551.61 10.67L551.61 10.67Q550.44 11.77 549.58 12.85L549.58 12.85L549.58 12.85Q548.73 13.93 548.31 14.73L548.31 14.73L548.31 14.73Q548.56 14.69 548.83 14.65L548.83 14.65L548.83 14.65Q549.09 14.62 549.40 14.59L549.40 14.59L549.40 14.59Q549.71 14.56 550.09 14.53L550.09 14.53L550.09 14.53Q550.47 14.50 550.96 14.48L550.96 14.48L550.96 14.48Q551.64 14.43 552.16 14.33L552.16 14.33L552.16 14.33Q552.68 14.22 553.04 14.11L553.04 14.11L553.04 14.11Q553.41 13.99 553.62 13.88L553.62 13.88L553.62 13.88Q553.84 13.78 553.94 13.71L553.94 13.71L553.94 13.71Q553.99 13.83 554.07 14.08L554.07 14.08L554.07 14.08Q554.15 14.34 554.21 14.64L554.21 14.64L554.21 14.64Q554.27 14.94 554.32 15.25L554.32 15.25L554.32 15.25Q554.36 15.57 554.36 15.83L554.36 15.83L554.36 15.83Q554.36 15.97 554.35 16.02L554.35 16.02L554.35 16.02Q554.34 16.07 554.33 16.13L554.33 16.13L554.33 16.13Q553.70 16.09 553.06 16.03L553.06 16.03L553.06 16.03Q552.43 15.97 551.80 15.97L551.80 15.97L551.80 15.97Q550.96 15.97 550.05 16.07L550.05 16.07L550.05 16.07Q549.15 16.16 548.32 16.34L548.32 16.34L548.32 16.34Q547.48 16.53 546.79 16.83L546.79 16.83L546.79 16.83Q546.10 17.12 545.68 17.53L545.68 17.53L545.68 17.53Q545.57 17.16 545.45 16.91L545.45 16.91L545.45 16.91Q545.33 16.65 545.33 16.28L545.33 16.28L545.33 16.28Q545.33 15.92 545.48 15.70L545.48 15.70L545.48 15.70Q545.62 15.48 545.87 15.34L545.87 15.34L545.87 15.34Q546.71 14.14 547.78 12.96L547.78 12.96L547.78 12.96Q548.86 11.77 550.07 10.67L550.07 10.67L550.07 10.67Q551.29 9.56 552.59 8.56L552.59 8.56L552.59 8.56Q553.90 7.56 555.20 6.73L555.20 6.73L555.20 6.73Q554.36 6.69 553.42 6.69L553.42 6.69L553.42 6.69Q552.76 6.69 552.12 6.72L552.12 6.72L552.12 6.72Q551.47 6.75 550.90 6.81L550.90 6.81L550.90 6.81Q550.33 6.87 549.84 6.99L549.84 6.99L549.84 6.99Q549.36 7.11 549.02 7.28ZM568.61 14.38L568.61 14.38L568.61 14.38Q568.96 14.98 568.96 15.54L568.96 15.54L568.96 15.54Q568.96 15.67 568.94 15.77L568.94 15.77L568.94 15.77Q568.92 15.88 568.89 15.99L568.89 15.99L568.89 15.99Q568.65 15.96 568.39 15.95L568.39 15.95L568.39 15.95Q568.13 15.93 567.85 15.93L567.85 15.93L567.85 15.93Q567.52 15.93 567.18 15.95L567.18 15.95L567.18 15.95Q566.83 15.97 566.41 16.02L566.41 16.02L566.41 16.02Q565.99 16.06 565.47 16.13L565.47 16.13L565.47 16.13Q564.96 16.20 564.27 16.31L564.27 16.31L564.27 16.31Q563.95 16.20 563.63 15.87L563.63 15.87L563.63 15.87Q563.30 15.54 563.02 15.08L563.02 15.08L563.02 15.08Q563.16 14.77 563.37 14.31L563.37 14.31L563.37 14.31Q563.58 13.86 563.86 13.21L563.86 13.21L563.86 13.21Q564.14 12.56 564.49 11.68L564.49 11.68L564.49 11.68Q564.83 10.81 565.22 9.66L565.22 9.66L565.22 9.66Q565.47 8.90 565.66 8.33L565.66 8.33L565.66 8.33Q565.84 7.76 565.99 7.22L565.99 7.22L565.99 7.22Q566.13 6.68 566.27 6.09L566.27 6.09L566.27 6.09Q566.41 5.50 566.58 4.73L566.58 4.73L566.58 4.73Q567.14 4.84 567.55 5.14L567.55 5.14L567.55 5.14Q567.97 5.45 568.34 6.01L568.34 6.01L568.34 6.01Q568.23 6.19 568.05 6.59L568.05 6.59L568.05 6.59Q567.87 7 567.62 7.58L567.62 7.58L567.62 7.58Q567.38 8.16 567.08 8.90L567.08 8.90L567.08 8.90Q566.79 9.63 566.47 10.47L566.47 10.47L566.47 10.47Q566.16 11.30 565.87 12.03L565.87 12.03L565.87 12.03Q565.57 12.75 565.34 13.34L565.34 13.34L565.34 13.34Q565.11 13.93 564.97 14.35L564.97 14.35L564.97 14.35Q564.83 14.77 564.83 14.98L564.83 14.98L564.83 14.98Q565.05 14.97 565.24 14.95L565.24 14.95L565.24 14.95Q565.42 14.94 565.61 14.90L565.61 14.90L565.61 14.90Q565.81 14.87 566.04 14.82L566.04 14.82L566.04 14.82Q566.27 14.77 566.59 14.69L566.59 14.69L566.59 14.69Q566.87 14.62 567.11 14.57L567.11 14.57L567.11 14.57Q567.35 14.52 567.58 14.48L567.58 14.48L567.58 14.48Q567.81 14.45 568.06 14.43L568.06 14.43L568.06 14.43Q568.30 14.41 568.61 14.38ZM583.03 9.21L583.03 9.21L583.03 9.21Q583.49 9.21 583.75 9.46L583.75 9.46L583.75 9.46Q584.01 9.72 584.01 10.16L584.01 10.16L584.01 10.16Q584.01 10.28 583.99 10.39L583.99 10.39L583.99 10.39Q583.97 10.51 583.94 10.60L583.94 10.60L583.94 10.60Q583.76 10.57 583.53 10.55L583.53 10.55L583.53 10.55Q583.31 10.53 583.00 10.53L583.00 10.53L583.00 10.53Q582.40 10.53 581.78 10.63L581.78 10.63L581.78 10.63Q581.17 10.74 580.61 10.81L580.61 10.81L580.61 10.81Q580.29 11.55 580.02 12.24L580.02 12.24L580.02 12.24Q579.75 12.94 579.57 13.51L579.57 13.51L579.57 13.51Q579.38 14.08 579.27 14.50L579.27 14.50L579.27 14.50Q579.17 14.92 579.15 15.13L579.15 15.13L579.15 15.13Q580.29 14.90 581.44 14.73L581.44 14.73L581.44 14.73Q582.60 14.56 583.87 14.48L583.87 14.48L583.87 14.48Q584.02 14.71 584.13 14.99L584.13 14.99L584.13 14.99Q584.23 15.27 584.23 15.60L584.23 15.60L584.23 15.60Q584.23 15.68 584.23 15.78L584.23 15.78L584.23 15.78Q584.23 15.88 584.21 15.97L584.21 15.97L584.21 15.97Q583.81 15.96 583.38 15.95L583.38 15.95L583.38 15.95Q582.95 15.95 582.25 15.95L582.25 15.95L582.25 15.95Q581.78 15.95 581.37 15.97L581.37 15.97L581.37 15.97Q580.96 15.99 580.54 16.03L580.54 16.03L580.54 16.03Q580.12 16.07 579.65 16.14L579.65 16.14L579.65 16.14Q579.18 16.21 578.59 16.31L578.59 16.31L578.59 16.31Q577.95 16.06 577.35 15.08L577.35 15.08L577.35 15.08Q577.58 14.57 578.01 13.54L578.01 13.54L578.01 13.54Q578.44 12.52 579.10 10.79L579.10 10.79L579.10 10.79Q578.47 10.60 578.27 10.09L578.27 10.09L578.27 10.09Q578.34 10.02 578.68 9.92L578.68 9.92L578.68 9.92Q579.01 9.81 579.50 9.70L579.50 9.70L579.50 9.70Q579.71 9.16 579.86 8.75L579.86 8.75L579.86 8.75Q580.01 8.34 580.12 7.99L580.12 7.99L580.12 7.99Q580.23 7.63 580.32 7.29L580.32 7.29L580.32 7.29Q580.41 6.94 580.50 6.54L580.50 6.54L580.50 6.54Q580.01 6.51 579.73 6.27L579.73 6.27L579.73 6.27Q579.45 6.02 579.45 5.63L579.45 5.63L579.45 5.63Q579.45 5.52 579.48 5.36L579.48 5.36L579.48 5.36Q579.52 5.21 579.56 5.10L579.56 5.10L579.56 5.10Q579.84 5.14 580.10 5.15L580.10 5.15L580.10 5.15Q580.36 5.17 580.78 5.17L580.78 5.17L580.78 5.17Q581.66 5.17 582.43 5.12L582.43 5.12L582.43 5.12Q583.20 5.07 583.82 5.01L583.82 5.01L583.82 5.01Q584.44 4.96 584.89 4.91L584.89 4.91L584.89 4.91Q585.34 4.86 585.58 4.86L585.58 4.86L585.58 4.86Q585.90 4.86 586.15 5.19L586.15 5.19L586.15 5.19Q586.40 5.53 586.53 6.15L586.53 6.15L586.53 6.15Q586.10 6.10 585.82 6.09L585.82 6.09L585.82 6.09Q585.55 6.08 585.34 6.08L585.34 6.08L585.34 6.08Q584.57 6.08 583.93 6.15L583.93 6.15L583.93 6.15Q583.30 6.23 582.71 6.31L582.71 6.31L582.71 6.31Q582.62 6.44 582.52 6.64L582.52 6.64L582.52 6.64Q582.41 6.83 582.25 7.18L582.25 7.18L582.25 7.18Q582.08 7.53 581.83 8.06L581.83 8.06L581.83 8.06Q581.59 8.60 581.24 9.39L581.24 9.39L581.24 9.39Q581.77 9.31 582.24 9.26L582.24 9.26L582.24 9.26Q582.71 9.21 583.03 9.21ZM593.11 15.71L593.11 15.71L593.11 15.71Q592.89 15.68 592.64 15.52L592.64 15.52L592.64 15.52Q592.40 15.36 592.33 15.16L592.33 15.16L592.33 15.16Q592.33 14.99 592.38 14.73L592.38 14.73L592.38 14.73Q592.42 14.46 592.49 14.19L592.49 14.19L592.49 14.19Q592.56 13.92 592.63 13.67L592.63 13.67L592.63 13.67Q592.70 13.43 592.73 13.30L592.73 13.30L592.73 13.30Q592.90 13.30 593.16 13.38L593.16 13.38L593.16 13.38Q593.42 13.47 593.69 13.62L593.69 13.62L593.69 13.62Q593.96 13.76 594.21 13.95L594.21 13.95L594.21 13.95Q594.45 14.14 594.58 14.34L594.58 14.34L594.58 14.34Q594.45 14.62 594.26 14.87L594.26 14.87L594.26 14.87Q594.06 15.12 593.85 15.31L593.85 15.31L593.85 15.31Q593.63 15.50 593.43 15.60L593.43 15.60L593.43 15.60Q593.24 15.71 593.11 15.71Z"></path></g></svg>