<svg data-v-fde0c5aa="" xmlns="http://www.w3.org/2000/svg" viewBox="0 0 300 300" class="font"><!----><defs data-v-fde0c5aa=""><linearGradient data-v-fde0c5aa="" gradientTransform="rotate(25)" id="1ff45aa3-57af-4ddd-a9c4-d371a94ae796" x1="0%" y1="0%" x2="100%" y2="0%"><stop data-v-fde0c5aa="" offset="0%" stop-color="#ffb489" stop-opacity="1"></stop><stop data-v-fde0c5aa="" offset="100%" stop-color="#ff84a7" stop-opacity="1"></stop></linearGradient></defs><rect data-v-fde0c5aa="" fill="url(#1ff45aa3-57af-4ddd-a9c4-d371a94ae796)" x="0" y="0" width="300px" height="300px" class="logo-background-square"></rect><defs data-v-fde0c5aa=""><!----></defs><g data-v-fde0c5aa="" id="3754d239-c80f-43c0-b6fe-f56039232ae9" fill="#6b65ff" transform="matrix(6.336406003358296,0,0,6.336406003358296,35.56451587318504,107.86290098409746)"><path d="M0.70 12.02L0.70 12.02L0.70 1.27L0.70 1.27Q0.70 1.05 0.92 1.05L0.92 1.05L4.29 1.05L4.29 1.05Q5.28 1.05 5.79 1.57L5.79 1.57L5.79 1.57Q6.30 2.08 6.30 3.07L6.30 3.07L6.30 6.48L6.30 6.48Q6.30 7.46 5.79 7.98L5.79 7.98L5.79 7.98Q5.27 8.50 4.29 8.50L4.29 8.50L2.60 8.50L2.60 12.02L2.60 12.02Q2.60 12.25 2.38 12.25L2.38 12.25L0.92 12.25L0.92 12.25Q0.82 12.25 0.76 12.19L0.76 12.19L0.76 12.19Q0.70 12.13 0.70 12.02ZM2.60 2.90L2.60 6.65L3.83 6.65L3.83 6.65Q4.40 6.65 4.40 6.09L4.40 6.09L4.40 3.46L4.40 3.46Q4.40 2.90 3.83 2.90L3.83 2.90L2.60 2.90ZM7.70 12.02L7.70 12.02L7.70 2.67L7.70 2.67Q7.70 2.57 7.76 2.51L7.76 2.51L7.76 2.51Q7.82 2.45 7.92 2.45L7.92 2.45L11.29 2.45L11.29 2.45Q12.28 2.45 12.79 2.96L12.79 2.96L12.79 2.96Q13.30 3.47 13.30 4.46L13.30 4.46L13.30 7.28L13.30 7.28Q13.30 8.50 12.52 8.99L12.52 8.99L13.24 12.00L13.24 12.00Q13.30 12.25 13.05 12.25L13.05 12.25L11.68 12.25L11.68 12.25Q11.48 12.25 11.44 12.05L11.44 12.05L10.77 9.30L9.52 9.30L9.52 12.02L9.52 12.02Q9.52 12.13 9.46 12.19L9.46 12.19L9.46 12.19Q9.40 12.25 9.30 12.25L9.30 12.25L7.92 12.25L7.92 12.25Q7.82 12.25 7.76 12.19L7.76 12.19L7.76 12.19Q7.70 12.13 7.70 12.02ZM9.52 4.26L9.52 7.49L10.92 7.49L10.92 7.49Q11.48 7.49 11.48 6.93L11.48 6.93L11.48 4.82L11.48 4.82Q11.48 4.26 10.92 4.26L10.92 4.26L9.52 4.26ZM14.70 10.23L14.70 10.23L14.70 4.46L14.70 4.46Q14.70 3.47 15.21 2.96L15.21 2.96L15.21 2.96Q15.72 2.45 16.71 2.45L16.71 2.45L18.29 2.45L18.29 2.45Q19.28 2.45 19.79 2.96L19.79 2.96L19.79 2.96Q20.30 3.47 20.30 4.46L20.30 4.46L20.30 10.23L20.30 10.23Q20.30 11.22 19.79 11.74L19.79 11.74L19.79 11.74Q19.28 12.25 18.29 12.25L18.29 12.25L16.71 12.25L16.71 12.25Q15.72 12.25 15.21 11.74L15.21 11.74L15.21 11.74Q14.70 11.22 14.70 10.23ZM16.52 4.82L16.52 9.88L16.52 9.88Q16.52 10.45 17.08 10.45L17.08 10.45L17.98 10.45L17.98 10.45Q18.54 10.45 18.54 9.88L18.54 9.88L18.54 4.82L18.54 4.82Q18.54 4.26 17.98 4.26L17.98 4.26L17.08 4.26L17.08 4.26Q16.52 4.26 16.52 4.82L16.52 4.82ZM21.70 10.23L21.70 10.23L21.70 8.78L21.70 8.78Q21.70 8.55 21.92 8.55L21.92 8.55L23.32 8.55L23.32 8.55Q23.43 8.55 23.49 8.61L23.49 8.61L23.49 8.61Q23.55 8.67 23.55 8.78L23.55 8.78L23.55 9.84L23.55 9.84Q23.55 10.40 24.11 10.40L24.11 10.40L24.83 10.40L24.83 10.40Q25.40 10.40 25.40 9.84L25.40 9.84L25.40 2.67L25.40 2.67Q25.40 2.45 25.62 2.45L25.62 2.45L27.08 2.45L27.08 2.45Q27.18 2.45 27.24 2.51L27.24 2.51L27.24 2.51Q27.30 2.57 27.30 2.67L27.30 2.67L27.30 10.23L27.30 10.23Q27.30 11.22 26.78 11.73L26.78 11.73L26.78 11.73Q26.26 12.25 25.29 12.25L25.29 12.25L23.71 12.25L23.71 12.25Q22.72 12.25 22.21 11.74L22.21 11.74L22.21 11.74Q21.70 11.22 21.70 10.23ZM28.44 12.15L28.44 12.15L28.44 12.15Q28.42 12.11 28.42 12.07L28.42 12.07L28.42 12.07Q28.42 12.00 28.46 11.92L28.46 11.92L30.83 7.24L28.60 2.79L28.60 2.79Q28.53 2.65 28.59 2.55L28.59 2.55L28.59 2.55Q28.65 2.45 28.81 2.45L28.81 2.45L30.26 2.45L30.26 2.45Q30.47 2.45 30.58 2.65L30.58 2.65L31.92 5.48L33.26 2.65L33.26 2.65Q33.36 2.45 33.58 2.45L33.58 2.45L35.03 2.45L35.03 2.45Q35.19 2.45 35.25 2.55L35.25 2.55L35.25 2.55Q35.31 2.65 35.24 2.79L35.24 2.79L33.02 7.24L35.38 11.92L35.38 11.92Q35.42 12.00 35.42 12.07L35.42 12.07L35.42 12.07Q35.42 12.11 35.40 12.15L35.40 12.15L35.40 12.15Q35.34 12.25 35.17 12.25L35.17 12.25L33.73 12.25L33.73 12.25Q33.51 12.25 33.41 12.05L33.41 12.05L31.92 9.02L30.43 12.05L30.43 12.05Q30.34 12.25 30.11 12.25L30.11 12.25L28.67 12.25L28.67 12.25Q28.50 12.25 28.44 12.15Z"></path></g><!----><!----></svg>